<?xml version="1.0" encoding="UTF-8" standalone="no"?>
<!DOCTYPE svg PUBLIC "-//W3C//DTD SVG 1.1//EN"
 "http://www.w3.org/Graphics/SVG/1.1/DTD/svg11.dtd">
<!-- Generated by graphviz version 2.38.0 (20140413.2041)
 -->
<!-- Title: ClassDiagram Pages: 1 -->
<svg width="1434pt" height="424pt"
 viewBox="0.00 0.00 1434.00 424.00" xmlns="http://www.w3.org/2000/svg" xmlns:xlink="http://www.w3.org/1999/xlink">
<g id="graph0" class="graph" transform="scale(1 1) rotate(0) translate(4 420)">
<title>ClassDiagram</title>
<polygon fill="white" stroke="none" points="-4,4 -4,-420 1430,-420 1430,4 -4,4"/>
<!-- Attribute -->
<g id="node1" class="node"><title>Attribute</title>
<polygon fill="none" stroke="black" points="0,-328.5 0,-388.5 192,-388.5 192,-328.5 0,-328.5"/>
<text text-anchor="middle" x="96" y="-378.1" font-family="Consolas" font-size="8.00">Attribute</text>
<polyline fill="none" stroke="black" points="0,-371.5 192,-371.5 "/>
<text text-anchor="start" x="8" y="-361.1" font-family="Consolas" font-size="8.00">&#45; Type : string</text>
<text text-anchor="start" x="8" y="-352.1" font-family="Consolas" font-size="8.00">&#45; Public : bool</text>
<polyline fill="none" stroke="black" points="0,-345.5 192,-345.5 "/>
<text text-anchor="start" x="8" y="-335.1" font-family="Consolas" font-size="8.00">+ OutputSelf() : override StringBuilder</text>
</g>
<!-- Node -->
<g id="node10" class="node"><title>Node</title>
<polygon fill="none" stroke="black" points="435,-204.5 435,-255.5 609,-255.5 609,-204.5 435,-204.5"/>
<text text-anchor="middle" x="522" y="-245.1" font-family="Consolas" font-size="8.00">Node</text>
<polyline fill="none" stroke="black" points="435,-238.5 609,-238.5 "/>
<text text-anchor="start" x="443" y="-228.1" font-family="Consolas" font-size="8.00">&#45; IsInterface : bool</text>
<polyline fill="none" stroke="black" points="435,-221.5 609,-221.5 "/>
<text text-anchor="start" x="443" y="-211.1" font-family="Consolas" font-size="8.00">+ OutputRelations() : StringBuilder</text>
</g>
<!-- Attribute&#45;&gt;Node -->
<g id="edge14" class="edge"><title>Attribute&#45;&gt;Node</title>
<path fill="none" stroke="black" d="M143.298,-328.419C160.91,-318.575 181.39,-308.251 201,-301 273.122,-274.331 358.302,-256.338 422.787,-245.279"/>
<polygon fill="none" stroke="black" points="423.154,-245.218 428.408,-240.278 434.988,-243.227 429.735,-248.167 423.154,-245.218"/>
<text text-anchor="middle" x="310" y="-276.6" font-family="Consolas" font-size="8.00">Attributes</text>
</g>
<!-- UMLEntity -->
<g id="node13" class="node"><title>UMLEntity</title>
<polygon fill="none" stroke="black" points="238,-0.5 238,-60.5 430,-60.5 430,-0.5 238,-0.5"/>
<text text-anchor="middle" x="334" y="-50.1" font-family="Consolas" font-size="8.00">UMLEntity</text>
<polyline fill="none" stroke="black" points="238,-43.5 430,-43.5 "/>
<text text-anchor="start" x="246" y="-33.1" font-family="Consolas" font-size="8.00">&#45; Name : string</text>
<polyline fill="none" stroke="black" points="238,-26.5 430,-26.5 "/>
<text text-anchor="start" x="246" y="-16.1" font-family="Consolas" font-size="8.00">+ ToString() : override string</text>
<text text-anchor="start" x="246" y="-7.1" font-family="Consolas" font-size="8.00">+ OutputSelf() : abstract StringBuilder</text>
</g>
<!-- Attribute&#45;&gt;UMLEntity -->
<g id="edge1" class="edge"><title>Attribute&#45;&gt;UMLEntity</title>
<path fill="none" stroke="black" d="M113.267,-328.283C153.162,-268.933 251.272,-134.352 302.286,-68.791"/>
<polygon fill="black" stroke="black" points="305.158,-70.8009 308.565,-60.7689 299.646,-66.4864 305.158,-70.8009"/>
</g>
<!-- Attribute&#45;&gt;UMLEntity -->
<g id="edge2" class="edge"><title>Attribute&#45;&gt;UMLEntity</title>
<path fill="none" stroke="black" d="M121.394,-328.283C168.062,-269.054 266.15,-134.9 310.99,-69.1924"/>
<polygon fill="none" stroke="black" points="313.986,-71.0107 316.699,-60.7689 308.191,-67.0838 313.986,-71.0107"/>
</g>
<!-- Bitmap -->
<g id="node2" class="node"><title>Bitmap</title>
<polygon fill="none" stroke="black" points="1028,-333 1028,-384 1082,-384 1082,-333 1028,-333"/>
<text text-anchor="middle" x="1055" y="-373.6" font-family="Consolas" font-size="8.00">Bitmap</text>
<polyline fill="none" stroke="black" points="1028,-367 1082,-367 "/>
<text text-anchor="middle" x="1055" y="-356.6" font-family="Consolas" font-size="8.00"> </text>
<polyline fill="none" stroke="black" points="1028,-350 1082,-350 "/>
<text text-anchor="middle" x="1055" y="-339.6" font-family="Consolas" font-size="8.00"> </text>
</g>
<!-- ClassNode -->
<g id="node3" class="node"><title>ClassNode</title>
<polygon fill="none" stroke="black" points="558.5,-333 558.5,-384 647.5,-384 647.5,-333 558.5,-333"/>
<text text-anchor="middle" x="603" y="-373.6" font-family="Consolas" font-size="8.00">ClassNode</text>
<polyline fill="none" stroke="black" points="558.5,-367 647.5,-367 "/>
<text text-anchor="middle" x="603" y="-356.6" font-family="Consolas" font-size="8.00"> </text>
<polyline fill="none" stroke="black" points="558.5,-350 647.5,-350 "/>
<text text-anchor="start" x="566.5" y="-339.6" font-family="Consolas" font-size="8.00">+ ClassNode() : </text>
</g>
<!-- ClassNode&#45;&gt;Node -->
<g id="edge3" class="edge"><title>ClassNode&#45;&gt;Node</title>
<path fill="none" stroke="black" d="M581.709,-332.809C567.739,-313.306 550.002,-285.893 537.369,-264.425"/>
<polygon fill="black" stroke="black" points="540.323,-262.541 532.294,-255.628 534.26,-266.039 540.323,-262.541"/>
</g>
<!-- ClassNode&#45;&gt;Node -->
<g id="edge4" class="edge"><title>ClassNode&#45;&gt;Node</title>
<path fill="none" stroke="black" d="M592.671,-332.809C581.566,-313.132 563.985,-285.402 549.038,-263.851"/>
<polygon fill="none" stroke="black" points="551.866,-261.789 543.246,-255.628 546.143,-265.82 551.866,-261.789"/>
</g>
<!-- ClassUsage -->
<g id="node4" class="node"><title>ClassUsage</title>
<polygon fill="none" stroke="black" points="1100,-333 1100,-384 1162,-384 1162,-333 1100,-333"/>
<text text-anchor="middle" x="1131" y="-373.6" font-family="Consolas" font-size="8.00">ClassUsage</text>
<polyline fill="none" stroke="black" points="1100,-367 1162,-367 "/>
<text text-anchor="middle" x="1131" y="-356.6" font-family="Consolas" font-size="8.00"> </text>
<polyline fill="none" stroke="black" points="1100,-350 1162,-350 "/>
<text text-anchor="middle" x="1131" y="-339.6" font-family="Consolas" font-size="8.00"> </text>
</g>
<!-- Usage&lt; ClassNode &gt; -->
<g id="node15" class="node"><title>Usage&lt; ClassNode &gt;</title>
<polygon fill="none" stroke="black" points="1082,-212 1082,-248 1180,-248 1180,-212 1082,-212"/>
<text text-anchor="middle" x="1131" y="-228.1" font-family="Consolas" font-size="8.00">Usage&lt; ClassNode &gt;</text>
</g>
<!-- ClassUsage&#45;&gt;Usage&lt; ClassNode &gt; -->
<g id="edge5" class="edge"><title>ClassUsage&#45;&gt;Usage&lt; ClassNode &gt;</title>
<path fill="none" stroke="black" d="M1131,-332.809C1131,-311.43 1131,-280.545 1131,-258.407"/>
<polygon fill="none" stroke="black" points="1134.5,-258.321 1131,-248.321 1127.5,-258.321 1134.5,-258.321"/>
</g>
<!-- Extensions -->
<g id="node5" class="node"><title>Extensions</title>
<polygon fill="none" stroke="black" points="1180.5,-319.5 1180.5,-397.5 1309.5,-397.5 1309.5,-319.5 1180.5,-319.5"/>
<text text-anchor="middle" x="1245" y="-387.1" font-family="Consolas" font-size="8.00">Extensions</text>
<polyline fill="none" stroke="black" points="1180.5,-380.5 1309.5,-380.5 "/>
<text text-anchor="middle" x="1245" y="-370.1" font-family="Consolas" font-size="8.00"> </text>
<polyline fill="none" stroke="black" points="1180.5,-363.5 1309.5,-363.5 "/>
<text text-anchor="start" x="1188.5" y="-353.1" font-family="Consolas" font-size="8.00">+ Escape() : string</text>
<text text-anchor="start" x="1188.5" y="-344.1" font-family="Consolas" font-size="8.00">+ Safe() : string</text>
<text text-anchor="start" x="1188.5" y="-335.1" font-family="Consolas" font-size="8.00">+ NoNameSpaces() : string</text>
<text text-anchor="start" x="1188.5" y="-326.1" font-family="Consolas" font-size="8.00">+ WithoutGuid() : string</text>
</g>
<!-- FileDotEngine -->
<g id="node6" class="node"><title>FileDotEngine</title>
<polygon fill="none" stroke="black" points="792,-204.5 792,-255.5 872,-255.5 872,-204.5 792,-204.5"/>
<text text-anchor="middle" x="832" y="-245.1" font-family="Consolas" font-size="8.00">FileDotEngine</text>
<polyline fill="none" stroke="black" points="792,-238.5 872,-238.5 "/>
<text text-anchor="middle" x="832" y="-228.1" font-family="Consolas" font-size="8.00"> </text>
<polyline fill="none" stroke="black" points="792,-221.5 872,-221.5 "/>
<text text-anchor="start" x="800" y="-211.1" font-family="Consolas" font-size="8.00">+ Run() : void</text>
</g>
<!-- InterfaceNode -->
<g id="node7" class="node"><title>InterfaceNode</title>
<polygon fill="none" stroke="black" points="665.5,-333 665.5,-384 772.5,-384 772.5,-333 665.5,-333"/>
<text text-anchor="middle" x="719" y="-373.6" font-family="Consolas" font-size="8.00">InterfaceNode</text>
<polyline fill="none" stroke="black" points="665.5,-367 772.5,-367 "/>
<text text-anchor="middle" x="719" y="-356.6" font-family="Consolas" font-size="8.00"> </text>
<polyline fill="none" stroke="black" points="665.5,-350 772.5,-350 "/>
<text text-anchor="start" x="673.5" y="-339.6" font-family="Consolas" font-size="8.00">+ InterfaceNode() : </text>
</g>
<!-- InterfaceNode&#45;&gt;Node -->
<g id="edge6" class="edge"><title>InterfaceNode&#45;&gt;Node</title>
<path fill="none" stroke="black" d="M686.214,-332.88C674.271,-322.362 660.523,-310.375 647,-301 625.104,-285.819 599.502,-271.671 577.139,-260.123"/>
<polygon fill="black" stroke="black" points="578.595,-256.937 568.097,-255.502 575.409,-263.17 578.595,-256.937"/>
</g>
<!-- InterfaceNode&#45;&gt;Node -->
<g id="edge7" class="edge"><title>InterfaceNode&#45;&gt;Node</title>
<path fill="none" stroke="black" d="M702.707,-332.88C692.271,-322.362 678.523,-310.375 665,-301 643.006,-285.751 617.275,-271.545 593.703,-259.969"/>
<polygon fill="none" stroke="black" points="594.972,-256.695 584.444,-255.502 591.93,-263 594.972,-256.695"/>
</g>
<!-- InterfaceUsage -->
<g id="node8" class="node"><title>InterfaceUsage</title>
<polygon fill="none" stroke="black" points="1328,-333 1328,-384 1408,-384 1408,-333 1328,-333"/>
<text text-anchor="middle" x="1368" y="-373.6" font-family="Consolas" font-size="8.00">InterfaceUsage</text>
<polyline fill="none" stroke="black" points="1328,-367 1408,-367 "/>
<text text-anchor="middle" x="1368" y="-356.6" font-family="Consolas" font-size="8.00"> </text>
<polyline fill="none" stroke="black" points="1328,-350 1408,-350 "/>
<text text-anchor="middle" x="1368" y="-339.6" font-family="Consolas" font-size="8.00"> </text>
</g>
<!-- Usage&lt; InterfaceNode &gt; -->
<g id="node16" class="node"><title>Usage&lt; InterfaceNode &gt;</title>
<polygon fill="none" stroke="black" points="1310,-212 1310,-248 1426,-248 1426,-212 1310,-212"/>
<text text-anchor="middle" x="1368" y="-228.1" font-family="Consolas" font-size="8.00">Usage&lt; InterfaceNode &gt;</text>
</g>
<!-- InterfaceUsage&#45;&gt;Usage&lt; InterfaceNode &gt; -->
<g id="edge8" class="edge"><title>InterfaceUsage&#45;&gt;Usage&lt; InterfaceNode &gt;</title>
<path fill="none" stroke="black" d="M1368,-332.809C1368,-311.43 1368,-280.545 1368,-258.407"/>
<polygon fill="none" stroke="black" points="1371.5,-258.321 1368,-248.321 1364.5,-258.321 1371.5,-258.321"/>
</g>
<!-- Method -->
<g id="node9" class="node"><title>Method</title>
<polygon fill="none" stroke="black" points="210,-328.5 210,-388.5 402,-388.5 402,-328.5 210,-328.5"/>
<text text-anchor="middle" x="306" y="-378.1" font-family="Consolas" font-size="8.00">Method</text>
<polyline fill="none" stroke="black" points="210,-371.5 402,-371.5 "/>
<text text-anchor="start" x="218" y="-361.1" font-family="Consolas" font-size="8.00">&#45; Public : bool</text>
<text text-anchor="start" x="218" y="-352.1" font-family="Consolas" font-size="8.00">&#45; Type : string</text>
<polyline fill="none" stroke="black" points="210,-345.5 402,-345.5 "/>
<text text-anchor="start" x="218" y="-335.1" font-family="Consolas" font-size="8.00">+ OutputSelf() : override StringBuilder</text>
</g>
<!-- Method&#45;&gt;Node -->
<g id="edge15" class="edge"><title>Method&#45;&gt;Node</title>
<path fill="none" stroke="black" d="M352.983,-328.429C379.543,-312.157 413.45,-291.653 444,-274 451.016,-269.945 458.429,-265.749 465.781,-261.639"/>
<polygon fill="none" stroke="black" points="465.968,-261.535 469.269,-255.123 476.457,-255.704 473.156,-262.116 465.968,-261.535"/>
<text text-anchor="middle" x="460" y="-276.6" font-family="Consolas" font-size="8.00">Methods</text>
</g>
<!-- Method&#45;&gt;UMLEntity -->
<g id="edge9" class="edge"><title>Method&#45;&gt;UMLEntity</title>
<path fill="none" stroke="black" d="M304.446,-328.283C306.092,-269.537 317.295,-137.085 326.039,-70.8152"/>
<polygon fill="black" stroke="black" points="329.526,-71.1523 327.42,-60.7689 322.591,-70.1994 329.526,-71.1523"/>
</g>
<!-- Method&#45;&gt;UMLEntity -->
<g id="edge10" class="edge"><title>Method&#45;&gt;UMLEntity</title>
<path fill="none" stroke="black" d="M312.573,-328.283C321.018,-269.537 332.567,-137.085 335.207,-70.8152"/>
<polygon fill="none" stroke="black" points="338.707,-70.8833 335.553,-60.7689 331.711,-70.6427 338.707,-70.8833"/>
</g>
<!-- Package -->
<g id="node11" class="node"><title>Package</title>
<polygon fill="none" stroke="black" points="399,-98.5 399,-158.5 591,-158.5 591,-98.5 399,-98.5"/>
<text text-anchor="middle" x="495" y="-148.1" font-family="Consolas" font-size="8.00">Package</text>
<polyline fill="none" stroke="black" points="399,-141.5 591,-141.5 "/>
<text text-anchor="start" x="407" y="-131.1" font-family="Consolas" font-size="8.00">&#45; Name : string</text>
<polyline fill="none" stroke="black" points="399,-124.5 591,-124.5 "/>
<text text-anchor="start" x="407" y="-114.1" font-family="Consolas" font-size="8.00">+ Package() : </text>
<text text-anchor="start" x="407" y="-105.1" font-family="Consolas" font-size="8.00">+ OutputSelf() : override StringBuilder</text>
</g>
<!-- Node&#45;&gt;Package -->
<g id="edge18" class="edge"><title>Node&#45;&gt;Package</title>
<path fill="none" stroke="black" d="M494.176,-204.31C489.607,-198.779 485.54,-192.582 483,-186 481.132,-181.159 480.509,-175.966 480.705,-170.761"/>
<polygon fill="none" stroke="black" points="480.723,-170.633 477.626,-164.121 482.446,-158.757 485.543,-165.269 480.723,-170.633"/>
<text text-anchor="middle" x="494.5" y="-179.6" font-family="Consolas" font-size="8.00">Nodes</text>
</g>
<!-- Node&#45;&gt;UMLEntity -->
<g id="edge16" class="edge"><title>Node&#45;&gt;UMLEntity</title>
<path fill="none" stroke="black" d="M446.937,-204.365C423.378,-193.289 398.918,-178.291 381,-159 357.875,-134.104 343.263,-98.1149 336.276,-70.7167"/>
<polygon fill="black" stroke="black" points="339.62,-69.6401 333.969,-60.6778 332.797,-71.2076 339.62,-69.6401"/>
</g>
<!-- Node&#45;&gt;UMLEntity -->
<g id="edge17" class="edge"><title>Node&#45;&gt;UMLEntity</title>
<path fill="none" stroke="black" d="M463.815,-204.365C441.378,-193.289 416.918,-178.291 399,-159 375.774,-133.994 361.135,-97.7976 351.166,-70.3551"/>
<polygon fill="none" stroke="black" points="354.366,-68.9104 347.697,-60.6778 347.777,-71.2723 354.366,-68.9104"/>
</g>
<!-- Package&#45;&gt;Node -->
<g id="edge11" class="edge"><title>Package&#45;&gt;Node</title>
<path fill="none" stroke="black" d="M504.568,-158.532C506.458,-164.608 508.361,-170.993 510,-177 511.358,-181.978 512.693,-187.25 513.951,-192.454"/>
<polygon fill="none" stroke="black" points="513.988,-192.615 519.249,-197.547 516.72,-204.3 511.459,-199.368 513.988,-192.615"/>
<text text-anchor="middle" x="529" y="-179.6" font-family="Consolas" font-size="8.00">Package</text>
</g>
<!-- Package&#45;&gt;Package -->
<g id="edge19" class="edge"><title>Package&#45;&gt;Package</title>
<path fill="none" stroke="black" d="M591.058,-136.127C601.945,-134.698 609,-132.156 609,-128.5 609,-126.443 606.768,-124.739 602.877,-123.388"/>
<polygon fill="none" stroke="black" points="602.796,-123.37 596.095,-126.034 591.058,-120.873 597.759,-118.209 602.796,-123.37"/>
<text text-anchor="middle" x="627.5" y="-126.6" font-family="Consolas" font-size="8.00">Packages</text>
</g>
<!-- Package&#45;&gt;UMLEntity -->
<g id="edge20" class="edge"><title>Package&#45;&gt;UMLEntity</title>
<path fill="none" stroke="black" d="M446.258,-98.4363C428.998,-88.145 409.419,-76.4705 391.5,-65.7858"/>
<polygon fill="none" stroke="black" points="393.236,-62.7457 382.854,-60.6304 389.651,-68.7581 393.236,-62.7457"/>
</g>
<!-- Program -->
<g id="node12" class="node"><title>Program</title>
<polygon fill="none" stroke="black" points="790.5,-328.5 790.5,-388.5 1009.5,-388.5 1009.5,-328.5 790.5,-328.5"/>
<text text-anchor="middle" x="900" y="-378.1" font-family="Consolas" font-size="8.00">Program</text>
<polyline fill="none" stroke="black" points="790.5,-371.5 1009.5,-371.5 "/>
<text text-anchor="middle" x="900" y="-361.1" font-family="Consolas" font-size="8.00"> </text>
<polyline fill="none" stroke="black" points="790.5,-354.5 1009.5,-354.5 "/>
<text text-anchor="start" x="798.5" y="-344.1" font-family="Consolas" font-size="8.00">&#45; Main() : void</text>
<text text-anchor="start" x="798.5" y="-335.1" font-family="Consolas" font-size="8.00">&#45; ParseDoxygenStructure() : List&lt; UMLEntity &gt;</text>
</g>
<!-- Program&#45;&gt;FileDotEngine -->
<g id="edge21" class="edge"><title>Program&#45;&gt;FileDotEngine</title>
<path fill="none" stroke="black" d="M884.399,-328.478C874.177,-309.461 860.778,-284.536 850.089,-264.651"/>
<polygon fill="black" stroke="black" points="853.055,-262.777 845.238,-255.626 846.89,-266.091 853.055,-262.777"/>
</g>
<!-- Program&#45;&gt;Node -->
<g id="edge22" class="edge"><title>Program&#45;&gt;Node</title>
<path fill="none" stroke="black" d="M843.993,-328.37C824.393,-318.86 802.026,-308.761 781,-301 728.571,-281.647 668.394,-265.058 619.248,-252.894"/>
<polygon fill="black" stroke="black" points="619.8,-249.425 609.254,-250.443 618.133,-256.224 619.8,-249.425"/>
</g>
<!-- Program&#45;&gt;UMLEntity -->
<g id="edge23" class="edge"><title>Program&#45;&gt;UMLEntity</title>
<path fill="none" stroke="black" d="M904.2,-328.499C907.397,-295.21 907.494,-240.513 881,-204 815.845,-114.204 760.262,-133.049 655,-98 585.036,-74.7044 503.664,-57.9549 440.355,-47.0927"/>
<polygon fill="black" stroke="black" points="440.798,-43.618 430.354,-45.3999 439.63,-50.5198 440.798,-43.618"/>
</g>
<!-- Usage -->
<g id="node14" class="node"><title>Usage</title>
<polygon fill="none" stroke="black" points="420,-301.5 420,-415.5 540,-415.5 540,-301.5 420,-301.5"/>
<text text-anchor="middle" x="480" y="-405.1" font-family="Consolas" font-size="8.00">Usage</text>
<polyline fill="none" stroke="black" points="420,-398.5 540,-398.5 "/>
<text text-anchor="start" x="428" y="-388.1" font-family="Consolas" font-size="8.00">&#45; Compound : bool</text>
<text text-anchor="start" x="428" y="-379.1" font-family="Consolas" font-size="8.00">&#45; node : T</text>
<text text-anchor="start" x="428" y="-370.1" font-family="Consolas" font-size="8.00">&#45; Relevant : bool</text>
<text text-anchor="start" x="428" y="-361.1" font-family="Consolas" font-size="8.00">&#45; Public : bool</text>
<text text-anchor="start" x="428" y="-352.1" font-family="Consolas" font-size="8.00">&#45; DeclaredName : string</text>
<text text-anchor="start" x="428" y="-343.1" font-family="Consolas" font-size="8.00">&#45; TypeName : string?</text>
<text text-anchor="start" x="428" y="-334.1" font-family="Consolas" font-size="8.00">&#45; Resolved : bool</text>
<text text-anchor="start" x="428" y="-325.1" font-family="Consolas" font-size="8.00">&#45; _typeName : string</text>
<polyline fill="none" stroke="black" points="420,-318.5 540,-318.5 "/>
<text text-anchor="middle" x="480" y="-308.1" font-family="Consolas" font-size="8.00"> </text>
</g>
<!-- Usage&#45;&gt;Node -->
<g id="edge12" class="edge"><title>Usage&#45;&gt;Node</title>
<path fill="none" stroke="black" d="M498.666,-301.279C502.519,-289.676 506.477,-277.755 510.014,-267.101"/>
<polygon fill="none" stroke="black" points="510.019,-267.085 508.113,-260.131 513.8,-255.697 515.706,-262.651 510.019,-267.085"/>
<text text-anchor="middle" x="526.5" y="-276.6" font-family="Consolas" font-size="8.00">Inherits</text>
</g>
<!-- Usage&#45;&gt;Node -->
<g id="edge13" class="edge"><title>Usage&#45;&gt;Node</title>
<path fill="none" stroke="black" d="M475.823,-301.109C476.685,-291.815 478.555,-282.461 482,-274 483.177,-271.108 484.645,-268.293 486.318,-265.577"/>
<polygon fill="none" stroke="black" points="486.504,-265.323 486.825,-258.119 493.598,-255.644 493.277,-262.848 486.504,-265.323"/>
<text text-anchor="middle" x="491.5" y="-276.6" font-family="Consolas" font-size="8.00">Uses</text>
</g>
</g>
</svg>
