<?xml version="1.0" encoding="UTF-8" standalone="no"?>
<!DOCTYPE svg PUBLIC "-//W3C//DTD SVG 1.1//EN"
 "http://www.w3.org/Graphics/SVG/1.1/DTD/svg11.dtd">
<!-- Generated by graphviz version 2.38.0 (20140413.2041)
 -->
<!-- Title: UML_Diagram_Generator.Program.ClassNode Pages: 1 -->
<svg width="177pt" height="331pt"
 viewBox="0.00 0.00 177.00 331.00" xmlns="http://www.w3.org/2000/svg" xmlns:xlink="http://www.w3.org/1999/xlink">
<g id="graph0" class="graph" transform="scale(1 1) rotate(0) translate(4 327)">
<title>UML_Diagram_Generator.Program.ClassNode</title>
<polygon fill="white" stroke="none" points="-4,4 -4,-327 173,-327 173,4 -4,4"/>
<!-- Node1 -->
<g id="node1" class="node"><title>Node1</title>
<g id="a_node1"><a xlink:title=" ">
<polygon fill="#bfbfbf" stroke="black" points="0,-0.5 0,-68.5 169,-68.5 169,-0.5 0,-0.5"/>
<text text-anchor="start" x="8" y="-56.5" font-family="Helvetica,sans-Serif" font-size="10.00">UML_Diagram_Generator.Program.</text>
<text text-anchor="middle" x="84.5" y="-45.5" font-family="Helvetica,sans-Serif" font-size="10.00">ClassNode</text>
<polyline fill="none" stroke="black" points="0,-38.5 169,-38.5 "/>
<text text-anchor="middle" x="84.5" y="-26.5" font-family="Helvetica,sans-Serif" font-size="10.00"> </text>
<polyline fill="none" stroke="black" points="0,-19.5 169,-19.5 "/>
<text text-anchor="start" x="8" y="-7.5" font-family="Helvetica,sans-Serif" font-size="10.00">+ ClassNode()</text>
</a>
</g>
</g>
<!-- Node2 -->
<g id="node2" class="node"><title>Node2</title>
<g id="a_node2"><a xlink:href="class_u_m_l___diagram___generator_1_1_program_1_1_node.html" target="_top" xlink:title=" ">
<polygon fill="white" stroke="black" points="34,-105.5 34,-217.5 135,-217.5 135,-105.5 34,-105.5"/>
<text text-anchor="middle" x="84.5" y="-205.5" font-family="Helvetica,sans-Serif" font-size="10.00">Node</text>
<polyline fill="none" stroke="black" points="34,-198.5 135,-198.5 "/>
<text text-anchor="start" x="42" y="-186.5" font-family="Helvetica,sans-Serif" font-size="10.00">+ Package</text>
<text text-anchor="start" x="42" y="-175.5" font-family="Helvetica,sans-Serif" font-size="10.00">+ Inherits</text>
<text text-anchor="start" x="42" y="-164.5" font-family="Helvetica,sans-Serif" font-size="10.00">+ Uses</text>
<text text-anchor="start" x="42" y="-153.5" font-family="Helvetica,sans-Serif" font-size="10.00">+ Attributes</text>
<text text-anchor="start" x="42" y="-142.5" font-family="Helvetica,sans-Serif" font-size="10.00">+ Methods</text>
<text text-anchor="start" x="42" y="-131.5" font-family="Helvetica,sans-Serif" font-size="10.00">+ IsInterface</text>
<polyline fill="none" stroke="black" points="34,-124.5 135,-124.5 "/>
<text text-anchor="start" x="42" y="-112.5" font-family="Helvetica,sans-Serif" font-size="10.00">+ OutputRelations()</text>
</a>
</g>
</g>
<!-- Node2&#45;&gt;Node1 -->
<g id="edge1" class="edge"><title>Node2&#45;&gt;Node1</title>
<path fill="none" stroke="midnightblue" d="M84.5,-95.2571C84.5,-85.9867 84.5,-76.797 84.5,-68.5058"/>
<polygon fill="none" stroke="midnightblue" points="81.0001,-95.3093 84.5,-105.309 88.0001,-95.3094 81.0001,-95.3093"/>
</g>
<!-- Node3 -->
<g id="node3" class="node"><title>Node3</title>
<g id="a_node3"><a xlink:href="class_u_m_l___diagram___generator_1_1_program_1_1_u_m_l_entity.html" target="_top" xlink:title="Represents a UML entity that can be represented.">
<polygon fill="white" stroke="black" points="46,-254.5 46,-322.5 123,-322.5 123,-254.5 46,-254.5"/>
<text text-anchor="middle" x="84.5" y="-310.5" font-family="Helvetica,sans-Serif" font-size="10.00">UMLEntity</text>
<polyline fill="none" stroke="black" points="46,-303.5 123,-303.5 "/>
<text text-anchor="start" x="54" y="-291.5" font-family="Helvetica,sans-Serif" font-size="10.00">+ Name</text>
<polyline fill="none" stroke="black" points="46,-284.5 123,-284.5 "/>
<text text-anchor="start" x="54" y="-272.5" font-family="Helvetica,sans-Serif" font-size="10.00">+ ToString()</text>
<text text-anchor="start" x="54" y="-261.5" font-family="Helvetica,sans-Serif" font-size="10.00">+ OutputSelf()</text>
</a>
</g>
</g>
<!-- Node3&#45;&gt;Node2 -->
<g id="edge2" class="edge"><title>Node3&#45;&gt;Node2</title>
<path fill="none" stroke="midnightblue" d="M84.5,-244.182C84.5,-235.604 84.5,-226.493 84.5,-217.585"/>
<polygon fill="none" stroke="midnightblue" points="81.0001,-244.33 84.5,-254.33 88.0001,-244.331 81.0001,-244.33"/>
</g>
</g>
</svg>
