<?xml version="1.0" encoding="UTF-8" standalone="no"?>
<!DOCTYPE svg PUBLIC "-//W3C//DTD SVG 1.1//EN"
 "http://www.w3.org/Graphics/SVG/1.1/DTD/svg11.dtd">
<!-- Generated by graphviz version 2.38.0 (20140413.2041)
 -->
<!-- Title: UML_Diagram_Generator.Program.Package Pages: 1 -->
<svg width="177pt" height="237pt"
 viewBox="0.00 0.00 177.00 237.00" xmlns="http://www.w3.org/2000/svg" xmlns:xlink="http://www.w3.org/1999/xlink">
<g id="graph0" class="graph" transform="scale(1 1) rotate(0) translate(4 233)">
<title>UML_Diagram_Generator.Program.Package</title>
<polygon fill="white" stroke="none" points="-4,4 -4,-233 173,-233 173,4 -4,4"/>
<!-- Node1 -->
<g id="node1" class="node"><title>Node1</title>
<g id="a_node1"><a xlink:title=" ">
<polygon fill="#bfbfbf" stroke="black" points="0,-0.5 0,-123.5 169,-123.5 169,-0.5 0,-0.5"/>
<text text-anchor="start" x="8" y="-111.5" font-family="Helvetica,sans-Serif" font-size="10.00">UML_Diagram_Generator.Program.</text>
<text text-anchor="middle" x="84.5" y="-100.5" font-family="Helvetica,sans-Serif" font-size="10.00">Package</text>
<polyline fill="none" stroke="black" points="0,-93.5 169,-93.5 "/>
<text text-anchor="start" x="8" y="-81.5" font-family="Helvetica,sans-Serif" font-size="10.00">+ Nodes</text>
<text text-anchor="start" x="8" y="-70.5" font-family="Helvetica,sans-Serif" font-size="10.00">+ Packages</text>
<text text-anchor="start" x="8" y="-59.5" font-family="Helvetica,sans-Serif" font-size="10.00">+ IsVirtual</text>
<polyline fill="none" stroke="black" points="0,-52.5 169,-52.5 "/>
<text text-anchor="start" x="8" y="-40.5" font-family="Helvetica,sans-Serif" font-size="10.00">+ Package()</text>
<text text-anchor="start" x="8" y="-29.5" font-family="Helvetica,sans-Serif" font-size="10.00">+ Contains()</text>
<text text-anchor="start" x="8" y="-18.5" font-family="Helvetica,sans-Serif" font-size="10.00">+ Get()</text>
<text text-anchor="start" x="8" y="-7.5" font-family="Helvetica,sans-Serif" font-size="10.00">+ OutputSelf()</text>
</a>
</g>
</g>
<!-- Node2 -->
<g id="node2" class="node"><title>Node2</title>
<g id="a_node2"><a xlink:href="class_u_m_l___diagram___generator_1_1_program_1_1_u_m_l_entity.html" target="_top" xlink:title="Represents a UML entity that can be represented.">
<polygon fill="white" stroke="black" points="46,-160.5 46,-228.5 123,-228.5 123,-160.5 46,-160.5"/>
<text text-anchor="middle" x="84.5" y="-216.5" font-family="Helvetica,sans-Serif" font-size="10.00">UMLEntity</text>
<polyline fill="none" stroke="black" points="46,-209.5 123,-209.5 "/>
<text text-anchor="start" x="54" y="-197.5" font-family="Helvetica,sans-Serif" font-size="10.00">+ Name</text>
<polyline fill="none" stroke="black" points="46,-190.5 123,-190.5 "/>
<text text-anchor="start" x="54" y="-178.5" font-family="Helvetica,sans-Serif" font-size="10.00">+ ToString()</text>
<text text-anchor="start" x="54" y="-167.5" font-family="Helvetica,sans-Serif" font-size="10.00">+ OutputSelf()</text>
</a>
</g>
</g>
<!-- Node2&#45;&gt;Node1 -->
<g id="edge1" class="edge"><title>Node2&#45;&gt;Node1</title>
<path fill="none" stroke="midnightblue" d="M84.5,-150.169C84.5,-141.652 84.5,-132.572 84.5,-123.609"/>
<polygon fill="none" stroke="midnightblue" points="81.0001,-150.232 84.5,-160.232 88.0001,-150.232 81.0001,-150.232"/>
</g>
</g>
</svg>
