<?xml version="1.0" encoding="UTF-8" standalone="no"?>
<!DOCTYPE svg PUBLIC "-//W3C//DTD SVG 1.1//EN"
 "http://www.w3.org/Graphics/SVG/1.1/DTD/svg11.dtd">
<!-- Generated by graphviz version 2.38.0 (20140413.2041)
 -->
<!-- Title: UML_Diagram_Generator.Program.Package.Get Pages: 1 -->
<svg width="608pt" height="39pt"
 viewBox="0.00 0.00 608.00 39.00" xmlns="http://www.w3.org/2000/svg" xmlns:xlink="http://www.w3.org/1999/xlink">
<g id="graph0" class="graph" transform="scale(1 1) rotate(0) translate(4 35)">
<title>UML_Diagram_Generator.Program.Package.Get</title>
<polygon fill="white" stroke="none" points="-4,4 -4,-35 604,-35 604,4 -4,4"/>
<!-- Node1 -->
<g id="node1" class="node"><title>Node1</title>
<g id="a_node1"><a xlink:title=" ">
<polygon fill="#bfbfbf" stroke="black" points="431,-0.5 431,-30.5 600,-30.5 600,-0.5 431,-0.5"/>
<text text-anchor="start" x="439" y="-18.5" font-family="Helvetica,sans-Serif" font-size="10.00">UML_Diagram_Generator.Program.</text>
<text text-anchor="middle" x="515.5" y="-7.5" font-family="Helvetica,sans-Serif" font-size="10.00">Package.Get</text>
</a>
</g>
</g>
<!-- Node2 -->
<g id="node2" class="node"><title>Node2</title>
<g id="a_node2"><a xlink:href="class_u_m_l___diagram___generator_1_1_program.html#a0fa6d432a7ad24491e78fcf92cbc2617" target="_top" xlink:title=" ">
<polygon fill="white" stroke="black" points="226,-0.5 226,-30.5 395,-30.5 395,-0.5 226,-0.5"/>
<text text-anchor="start" x="234" y="-18.5" font-family="Helvetica,sans-Serif" font-size="10.00">UML_Diagram_Generator.Program.</text>
<text text-anchor="middle" x="310.5" y="-7.5" font-family="Helvetica,sans-Serif" font-size="10.00">ParseDoxygenStructure</text>
</a>
</g>
</g>
<!-- Node1&#45;&gt;Node2 -->
<g id="edge1" class="edge"><title>Node1&#45;&gt;Node2</title>
<path fill="none" stroke="midnightblue" d="M420.744,-15.5C412.171,-15.5 403.523,-15.5 395.047,-15.5"/>
<polygon fill="midnightblue" stroke="midnightblue" points="420.76,-19.0001 430.76,-15.5 420.76,-12.0001 420.76,-19.0001"/>
</g>
<!-- Node3 -->
<g id="node3" class="node"><title>Node3</title>
<g id="a_node3"><a xlink:href="class_u_m_l___diagram___generator_1_1_program.html#a5f2dfed1b8b900b321af1eaca03af23f" target="_top" xlink:title="Call the program either with or without arguments specifying in which folder it should run.">
<polygon fill="white" stroke="black" points="0,-6 0,-25 190,-25 190,-6 0,-6"/>
<text text-anchor="middle" x="95" y="-13" font-family="Helvetica,sans-Serif" font-size="10.00">UML_Diagram_Generator.Program.Main</text>
</a>
</g>
</g>
<!-- Node2&#45;&gt;Node3 -->
<g id="edge2" class="edge"><title>Node2&#45;&gt;Node3</title>
<path fill="none" stroke="midnightblue" d="M215.519,-15.5C207.091,-15.5 198.554,-15.5 190.125,-15.5"/>
<polygon fill="midnightblue" stroke="midnightblue" points="215.732,-19.0001 225.732,-15.5 215.732,-12.0001 215.732,-19.0001"/>
</g>
</g>
</svg>
