<?xml version="1.0" encoding="UTF-8" standalone="no"?>
<!DOCTYPE svg PUBLIC "-//W3C//DTD SVG 1.1//EN"
 "http://www.w3.org/Graphics/SVG/1.1/DTD/svg11.dtd">
<!-- Generated by graphviz version 2.38.0 (20140413.2041)
 -->
<!-- Title: UML_Diagram_Generator.Program.UMLEntity Pages: 1 -->
<!--zoomable 353 -->
<svg id="main" version="1.1" xmlns="http://www.w3.org/2000/svg" xmlns:xlink="http://www.w3.org/1999/xlink" xml:space="preserve" onload="init(evt)">
<style type="text/css"><![CDATA[
.edge:hover path { stroke: red; }
.edge:hover polygon { stroke: red; fill: red; }
]]></style>
<script type="text/javascript"><![CDATA[
var edges = document.getElementsByTagName('g');
if (edges && edges.length) {
  for (var i=0;i<edges.length;i++) {
    if (edges[i].id.substr(0,4)=='edge') {
      edges[i].setAttribute('class','edge');
    }
  }
}
]]></script>
        <defs>
                <circle id="rim" cx="0" cy="0" r="7"/>
                <circle id="rim2" cx="0" cy="0" r="3.5"/>
                <g id="zoomPlus">
                        <use xlink:href="#rim" fill="#404040">
                                <set attributeName="fill" to="#808080" begin="zoomplus.mouseover" end="zoomplus.mouseout"/>
                        </use>
                        <path d="M-4,0h8M0,-4v8" fill="none" stroke="white" stroke-width="1.5" pointer-events="none"/>
                </g>
                <g id="zoomMin">
                        <use xlink:href="#rim" fill="#404040">
                                <set attributeName="fill" to="#808080" begin="zoomminus.mouseover" end="zoomminus.mouseout"/>
                        </use>
                        <path d="M-4,0h8" fill="none" stroke="white" stroke-width="1.5" pointer-events="none"/>
                </g>
                <g id="dirArrow">
                        <path fill="none" stroke="white" stroke-width="1.5" d="M0,-3.0v7 M-2.5,-0.5L0,-3.0L2.5,-0.5"/>
                </g>
               <g id="resetDef">
                       <use xlink:href="#rim2" fill="#404040">
                               <set attributeName="fill" to="#808080" begin="reset.mouseover" end="reset.mouseout"/>
                       </use>
               </g>
        </defs>

<script type="text/javascript">
var viewWidth = 760;
var viewHeight = 353;
var sectionId = 'dynsection-0';
</script>
<script xlink:href="svgpan.js"/>
<svg id="graph" class="graph">
<g id="viewport">
<title>UML_Diagram_Generator.Program.UMLEntity</title>
<polygon fill="white" stroke="none" points="-4,4 -4,-349 756,-349 756,4 -4,4"/>
<!-- Node1 -->
<g id="node1" class="node"><title>Node1</title>
<g id="a_node1"><a xlink:title="Represents a UML entity that can be represented.">
<polygon fill="#bfbfbf" stroke="black" points="286,-265.5 286,-344.5 455,-344.5 455,-265.5 286,-265.5"/>
<text text-anchor="start" x="294" y="-332.5" font-family="Helvetica,sans-Serif" font-size="10.00">UML_Diagram_Generator.Program.</text>
<text text-anchor="middle" x="370.5" y="-321.5" font-family="Helvetica,sans-Serif" font-size="10.00">UMLEntity</text>
<polyline fill="none" stroke="black" points="286,-314.5 455,-314.5 "/>
<text text-anchor="start" x="294" y="-302.5" font-family="Helvetica,sans-Serif" font-size="10.00">+ Name</text>
<polyline fill="none" stroke="black" points="286,-295.5 455,-295.5 "/>
<text text-anchor="start" x="294" y="-283.5" font-family="Helvetica,sans-Serif" font-size="10.00">+ ToString()</text>
<text text-anchor="start" x="294" y="-272.5" font-family="Helvetica,sans-Serif" font-size="10.00">+ OutputSelf()</text>
</a>
</g>
</g>
<!-- Node2 -->
<g id="node2" class="node"><title>Node2</title>
<g id="a_node2"><a xlink:href="class_u_m_l___diagram___generator_1_1_program_1_1_attribute.html" target="_top" xlink:title=" ">
<polygon fill="white" stroke="black" points="0,-127.5 0,-206.5 169,-206.5 169,-127.5 0,-127.5"/>
<text text-anchor="start" x="8" y="-194.5" font-family="Helvetica,sans-Serif" font-size="10.00">UML_Diagram_Generator.Program.</text>
<text text-anchor="middle" x="84.5" y="-183.5" font-family="Helvetica,sans-Serif" font-size="10.00">Attribute</text>
<polyline fill="none" stroke="black" points="0,-176.5 169,-176.5 "/>
<text text-anchor="start" x="8" y="-164.5" font-family="Helvetica,sans-Serif" font-size="10.00">+ Type</text>
<text text-anchor="start" x="8" y="-153.5" font-family="Helvetica,sans-Serif" font-size="10.00">+ Public</text>
<polyline fill="none" stroke="black" points="0,-146.5 169,-146.5 "/>
<text text-anchor="start" x="8" y="-134.5" font-family="Helvetica,sans-Serif" font-size="10.00">+ OutputSelf()</text>
</a>
</g>
</g>
<!-- Node1&#45;&gt;Node2 -->
<g id="edge1" class="edge"><title>Node1&#45;&gt;Node2</title>
<path fill="none" stroke="midnightblue" d="M276.019,-271.469C244.408,-259.441 209.375,-244.84 178.5,-229 165.604,-222.384 152.254,-214.453 139.805,-206.532"/>
<polygon fill="none" stroke="midnightblue" points="275.119,-274.87 285.711,-275.117 277.585,-268.318 275.119,-274.87"/>
</g>
<!-- Node3 -->
<g id="node3" class="node"><title>Node3</title>
<g id="a_node3"><a xlink:href="class_u_m_l___diagram___generator_1_1_program_1_1_method.html" target="_top" xlink:title=" ">
<polygon fill="white" stroke="black" points="187,-127.5 187,-206.5 356,-206.5 356,-127.5 187,-127.5"/>
<text text-anchor="start" x="195" y="-194.5" font-family="Helvetica,sans-Serif" font-size="10.00">UML_Diagram_Generator.Program.</text>
<text text-anchor="middle" x="271.5" y="-183.5" font-family="Helvetica,sans-Serif" font-size="10.00">Method</text>
<polyline fill="none" stroke="black" points="187,-176.5 356,-176.5 "/>
<text text-anchor="start" x="195" y="-164.5" font-family="Helvetica,sans-Serif" font-size="10.00">+ Public</text>
<text text-anchor="start" x="195" y="-153.5" font-family="Helvetica,sans-Serif" font-size="10.00">+ Type</text>
<polyline fill="none" stroke="black" points="187,-146.5 356,-146.5 "/>
<text text-anchor="start" x="195" y="-134.5" font-family="Helvetica,sans-Serif" font-size="10.00">+ OutputSelf()</text>
</a>
</g>
</g>
<!-- Node1&#45;&gt;Node3 -->
<g id="edge2" class="edge"><title>Node1&#45;&gt;Node3</title>
<path fill="none" stroke="midnightblue" d="M336.285,-256.997C324.338,-240.585 311.074,-222.364 299.675,-206.705"/>
<polygon fill="none" stroke="midnightblue" points="333.68,-259.367 342.395,-265.392 339.34,-255.247 333.68,-259.367"/>
</g>
<!-- Node4 -->
<g id="node4" class="node"><title>Node4</title>
<g id="a_node4"><a xlink:href="class_u_m_l___diagram___generator_1_1_program_1_1_node.html" target="_top" xlink:title=" ">
<polygon fill="white" stroke="black" points="374,-111 374,-223 565,-223 565,-111 374,-111"/>
<text text-anchor="middle" x="469.5" y="-211" font-family="Helvetica,sans-Serif" font-size="10.00">UML_Diagram_Generator.Program.Node</text>
<polyline fill="none" stroke="black" points="374,-204 565,-204 "/>
<text text-anchor="start" x="382" y="-192" font-family="Helvetica,sans-Serif" font-size="10.00">+ Package</text>
<text text-anchor="start" x="382" y="-181" font-family="Helvetica,sans-Serif" font-size="10.00">+ Inherits</text>
<text text-anchor="start" x="382" y="-170" font-family="Helvetica,sans-Serif" font-size="10.00">+ Uses</text>
<text text-anchor="start" x="382" y="-159" font-family="Helvetica,sans-Serif" font-size="10.00">+ Attributes</text>
<text text-anchor="start" x="382" y="-148" font-family="Helvetica,sans-Serif" font-size="10.00">+ Methods</text>
<text text-anchor="start" x="382" y="-137" font-family="Helvetica,sans-Serif" font-size="10.00">+ IsInterface</text>
<polyline fill="none" stroke="black" points="374,-130 565,-130 "/>
<text text-anchor="start" x="382" y="-118" font-family="Helvetica,sans-Serif" font-size="10.00">+ OutputRelations()</text>
</a>
</g>
</g>
<!-- Node1&#45;&gt;Node4 -->
<g id="edge3" class="edge"><title>Node1&#45;&gt;Node4</title>
<path fill="none" stroke="midnightblue" d="M404.569,-257.198C412.541,-246.247 421.105,-234.481 429.315,-223.203"/>
<polygon fill="none" stroke="midnightblue" points="401.66,-255.247 398.605,-265.392 407.32,-259.367 401.66,-255.247"/>
</g>
<!-- Node7 -->
<g id="node7" class="node"><title>Node7</title>
<g id="a_node7"><a xlink:href="class_u_m_l___diagram___generator_1_1_program_1_1_package.html" target="_top" xlink:title=" ">
<polygon fill="white" stroke="black" points="583,-105.5 583,-228.5 752,-228.5 752,-105.5 583,-105.5"/>
<text text-anchor="start" x="591" y="-216.5" font-family="Helvetica,sans-Serif" font-size="10.00">UML_Diagram_Generator.Program.</text>
<text text-anchor="middle" x="667.5" y="-205.5" font-family="Helvetica,sans-Serif" font-size="10.00">Package</text>
<polyline fill="none" stroke="black" points="583,-198.5 752,-198.5 "/>
<text text-anchor="start" x="591" y="-186.5" font-family="Helvetica,sans-Serif" font-size="10.00">+ Nodes</text>
<text text-anchor="start" x="591" y="-175.5" font-family="Helvetica,sans-Serif" font-size="10.00">+ Packages</text>
<text text-anchor="start" x="591" y="-164.5" font-family="Helvetica,sans-Serif" font-size="10.00">+ IsVirtual</text>
<polyline fill="none" stroke="black" points="583,-157.5 752,-157.5 "/>
<text text-anchor="start" x="591" y="-145.5" font-family="Helvetica,sans-Serif" font-size="10.00">+ Package()</text>
<text text-anchor="start" x="591" y="-134.5" font-family="Helvetica,sans-Serif" font-size="10.00">+ Contains()</text>
<text text-anchor="start" x="591" y="-123.5" font-family="Helvetica,sans-Serif" font-size="10.00">+ Get()</text>
<text text-anchor="start" x="591" y="-112.5" font-family="Helvetica,sans-Serif" font-size="10.00">+ OutputSelf()</text>
</a>
</g>
</g>
<!-- Node1&#45;&gt;Node7 -->
<g id="edge6" class="edge"><title>Node1&#45;&gt;Node7</title>
<path fill="none" stroke="midnightblue" d="M464.975,-274.322C500.111,-261.982 539.842,-246.449 574.5,-229 577.259,-227.611 580.037,-226.157 582.82,-224.652"/>
<polygon fill="none" stroke="midnightblue" points="463.494,-271.131 455.195,-277.716 465.79,-277.744 463.494,-271.131"/>
</g>
<!-- Node5 -->
<g id="node5" class="node"><title>Node5</title>
<g id="a_node5"><a xlink:href="class_u_m_l___diagram___generator_1_1_program_1_1_class_node.html" target="_top" xlink:title=" ">
<polygon fill="white" stroke="black" points="291,-0.5 291,-68.5 460,-68.5 460,-0.5 291,-0.5"/>
<text text-anchor="start" x="299" y="-56.5" font-family="Helvetica,sans-Serif" font-size="10.00">UML_Diagram_Generator.Program.</text>
<text text-anchor="middle" x="375.5" y="-45.5" font-family="Helvetica,sans-Serif" font-size="10.00">ClassNode</text>
<polyline fill="none" stroke="black" points="291,-38.5 460,-38.5 "/>
<text text-anchor="middle" x="375.5" y="-26.5" font-family="Helvetica,sans-Serif" font-size="10.00"> </text>
<polyline fill="none" stroke="black" points="291,-19.5 460,-19.5 "/>
<text text-anchor="start" x="299" y="-7.5" font-family="Helvetica,sans-Serif" font-size="10.00">+ ClassNode()</text>
</a>
</g>
</g>
<!-- Node4&#45;&gt;Node5 -->
<g id="edge4" class="edge"><title>Node4&#45;&gt;Node5</title>
<path fill="none" stroke="midnightblue" d="M423.557,-102.218C415.178,-90.585 406.754,-78.8899 399.351,-68.6126"/>
<polygon fill="none" stroke="midnightblue" points="420.951,-104.588 429.636,-110.656 426.631,-100.496 420.951,-104.588"/>
</g>
<!-- Node6 -->
<g id="node6" class="node"><title>Node6</title>
<g id="a_node6"><a xlink:href="class_u_m_l___diagram___generator_1_1_program_1_1_interface_node.html" target="_top" xlink:title=" ">
<polygon fill="white" stroke="black" points="478,-0.5 478,-68.5 647,-68.5 647,-0.5 478,-0.5"/>
<text text-anchor="start" x="486" y="-56.5" font-family="Helvetica,sans-Serif" font-size="10.00">UML_Diagram_Generator.Program.</text>
<text text-anchor="middle" x="562.5" y="-45.5" font-family="Helvetica,sans-Serif" font-size="10.00">InterfaceNode</text>
<polyline fill="none" stroke="black" points="478,-38.5 647,-38.5 "/>
<text text-anchor="middle" x="562.5" y="-26.5" font-family="Helvetica,sans-Serif" font-size="10.00"> </text>
<polyline fill="none" stroke="black" points="478,-19.5 647,-19.5 "/>
<text text-anchor="start" x="486" y="-7.5" font-family="Helvetica,sans-Serif" font-size="10.00">+ InterfaceNode()</text>
</a>
</g>
</g>
<!-- Node4&#45;&gt;Node6 -->
<g id="edge5" class="edge"><title>Node4&#45;&gt;Node6</title>
<path fill="none" stroke="midnightblue" d="M514.954,-102.218C523.244,-90.585 531.578,-78.8899 538.903,-68.6126"/>
<polygon fill="none" stroke="midnightblue" points="511.894,-100.481 508.94,-110.656 517.594,-104.544 511.894,-100.481"/>
</g>
</g>
</svg>
        <g id="navigator" transform="translate(0 0)" fill="#404254">
                <rect fill="#f2f5e9" fill-opacity="0.5" stroke="#606060" stroke-width=".5" x="0" y="0" width="60" height="60"/>
                <use id="zoomplus" xlink:href="#zoomPlus" x="17" y="9" onmousedown="handleZoom(evt,'in')"/>
                <use id="zoomminus" xlink:href="#zoomMin" x="42" y="9" onmousedown="handleZoom(evt,'out')"/>
                <use id="reset" xlink:href="#resetDef" x="30" y="36" onmousedown="handleReset()"/>
                <g id="arrowUp" xlink:href="#dirArrow" transform="translate(30 24)" onmousedown="handlePan(0,-1)">
                  <use xlink:href="#rim" fill="#404040">
                        <set attributeName="fill" to="#808080" begin="arrowUp.mouseover" end="arrowUp.mouseout"/>
                  </use>
                  <path fill="none" stroke="white" stroke-width="1.5" d="M0,-3.0v7 M-2.5,-0.5L0,-3.0L2.5,-0.5"/>
                </g>
                <g id="arrowRight" xlink:href="#dirArrow" transform="rotate(90) translate(36 -43)" onmousedown="handlePan(1,0)">
                  <use xlink:href="#rim" fill="#404040">
                        <set attributeName="fill" to="#808080" begin="arrowRight.mouseover" end="arrowRight.mouseout"/>
                  </use>
                  <path fill="none" stroke="white" stroke-width="1.5" d="M0,-3.0v7 M-2.5,-0.5L0,-3.0L2.5,-0.5"/>
                </g>
                <g id="arrowDown" xlink:href="#dirArrow" transform="rotate(180) translate(-30 -48)" onmousedown="handlePan(0,1)">
                  <use xlink:href="#rim" fill="#404040">
                        <set attributeName="fill" to="#808080" begin="arrowDown.mouseover" end="arrowDown.mouseout"/>
                  </use>
                  <path fill="none" stroke="white" stroke-width="1.5" d="M0,-3.0v7 M-2.5,-0.5L0,-3.0L2.5,-0.5"/>
                </g>
                <g id="arrowLeft" xlink:href="#dirArrow" transform="rotate(270) translate(-36 17)" onmousedown="handlePan(-1,0)">
                  <use xlink:href="#rim" fill="#404040">
                        <set attributeName="fill" to="#808080" begin="arrowLeft.mouseover" end="arrowLeft.mouseout"/>
                  </use>
                  <path fill="none" stroke="white" stroke-width="1.5" d="M0,-3.0v7 M-2.5,-0.5L0,-3.0L2.5,-0.5"/>
                </g>
        </g>
        <svg viewBox="0 0 15 15" width="100%" height="30px" preserveAspectRatio="xMaxYMin meet">
         <g id="arrow_out" transform="scale(0.3 0.3)">
          <a xlink:href="class_u_m_l___diagram___generator_1_1_program_1_1_u_m_l_entity__inherit__graph_org.svg" target="_base">
           <rect id="button" ry="5" rx="5" y="6" x="6" height="38" width="38"
                fill="#f2f5e9" fill-opacity="0.5" stroke="#606060" stroke-width="1.0"/>
           <path id="arrow"
             d="M 11.500037,31.436501 C 11.940474,20.09759 22.043105,11.32322 32.158766,21.979434 L 37.068811,17.246167 C 37.068811,17.246167 37.088388,32 37.088388,32 L 22.160133,31.978069 C 22.160133,31.978069 26.997745,27.140456 26.997745,27.140456 C 18.528582,18.264221 13.291696,25.230495 11.500037,31.436501 z"
             style="fill:#404040;"/>
          </a>
         </g>
        </svg>
</svg>
