<?xml version="1.0" encoding="UTF-8" standalone="no"?>
<!DOCTYPE svg PUBLIC "-//W3C//DTD SVG 1.1//EN"
 "http://www.w3.org/Graphics/SVG/1.1/DTD/svg11.dtd">
<!-- Generated by graphviz version 2.38.0 (20140413.2041)
 -->
<!-- Title: UML_Diagram_Generator.Program.Node Pages: 1 -->
<svg width="364pt" height="331pt"
 viewBox="0.00 0.00 364.00 331.00" xmlns="http://www.w3.org/2000/svg" xmlns:xlink="http://www.w3.org/1999/xlink">
<g id="graph0" class="graph" transform="scale(1 1) rotate(0) translate(4 327)">
<title>UML_Diagram_Generator.Program.Node</title>
<polygon fill="white" stroke="none" points="-4,4 -4,-327 360,-327 360,4 -4,4"/>
<!-- Node1 -->
<g id="node1" class="node"><title>Node1</title>
<g id="a_node1"><a xlink:title=" ">
<polygon fill="#bfbfbf" stroke="black" points="82,-105.5 82,-217.5 273,-217.5 273,-105.5 82,-105.5"/>
<text text-anchor="middle" x="177.5" y="-205.5" font-family="Helvetica,sans-Serif" font-size="10.00">UML_Diagram_Generator.Program.Node</text>
<polyline fill="none" stroke="black" points="82,-198.5 273,-198.5 "/>
<text text-anchor="start" x="90" y="-186.5" font-family="Helvetica,sans-Serif" font-size="10.00">+ Package</text>
<text text-anchor="start" x="90" y="-175.5" font-family="Helvetica,sans-Serif" font-size="10.00">+ Inherits</text>
<text text-anchor="start" x="90" y="-164.5" font-family="Helvetica,sans-Serif" font-size="10.00">+ Uses</text>
<text text-anchor="start" x="90" y="-153.5" font-family="Helvetica,sans-Serif" font-size="10.00">+ Attributes</text>
<text text-anchor="start" x="90" y="-142.5" font-family="Helvetica,sans-Serif" font-size="10.00">+ Methods</text>
<text text-anchor="start" x="90" y="-131.5" font-family="Helvetica,sans-Serif" font-size="10.00">+ IsInterface</text>
<polyline fill="none" stroke="black" points="82,-124.5 273,-124.5 "/>
<text text-anchor="start" x="90" y="-112.5" font-family="Helvetica,sans-Serif" font-size="10.00">+ OutputRelations()</text>
</a>
</g>
</g>
<!-- Node3 -->
<g id="node3" class="node"><title>Node3</title>
<g id="a_node3"><a xlink:href="class_u_m_l___diagram___generator_1_1_program_1_1_class_node.html" target="_top" xlink:title=" ">
<polygon fill="white" stroke="black" points="0,-0.5 0,-68.5 169,-68.5 169,-0.5 0,-0.5"/>
<text text-anchor="start" x="8" y="-56.5" font-family="Helvetica,sans-Serif" font-size="10.00">UML_Diagram_Generator.Program.</text>
<text text-anchor="middle" x="84.5" y="-45.5" font-family="Helvetica,sans-Serif" font-size="10.00">ClassNode</text>
<polyline fill="none" stroke="black" points="0,-38.5 169,-38.5 "/>
<text text-anchor="middle" x="84.5" y="-26.5" font-family="Helvetica,sans-Serif" font-size="10.00"> </text>
<polyline fill="none" stroke="black" points="0,-19.5 169,-19.5 "/>
<text text-anchor="start" x="8" y="-7.5" font-family="Helvetica,sans-Serif" font-size="10.00">+ ClassNode()</text>
</a>
</g>
</g>
<!-- Node1&#45;&gt;Node3 -->
<g id="edge2" class="edge"><title>Node1&#45;&gt;Node3</title>
<path fill="none" stroke="midnightblue" d="M130.281,-97.033C122.938,-87.1635 115.619,-77.3262 109.056,-68.5058"/>
<polygon fill="none" stroke="midnightblue" points="127.661,-99.3755 136.438,-105.309 133.277,-95.197 127.661,-99.3755"/>
</g>
<!-- Node4 -->
<g id="node4" class="node"><title>Node4</title>
<g id="a_node4"><a xlink:href="class_u_m_l___diagram___generator_1_1_program_1_1_interface_node.html" target="_top" xlink:title=" ">
<polygon fill="white" stroke="black" points="187,-0.5 187,-68.5 356,-68.5 356,-0.5 187,-0.5"/>
<text text-anchor="start" x="195" y="-56.5" font-family="Helvetica,sans-Serif" font-size="10.00">UML_Diagram_Generator.Program.</text>
<text text-anchor="middle" x="271.5" y="-45.5" font-family="Helvetica,sans-Serif" font-size="10.00">InterfaceNode</text>
<polyline fill="none" stroke="black" points="187,-38.5 356,-38.5 "/>
<text text-anchor="middle" x="271.5" y="-26.5" font-family="Helvetica,sans-Serif" font-size="10.00"> </text>
<polyline fill="none" stroke="black" points="187,-19.5 356,-19.5 "/>
<text text-anchor="start" x="195" y="-7.5" font-family="Helvetica,sans-Serif" font-size="10.00">+ InterfaceNode()</text>
</a>
</g>
</g>
<!-- Node1&#45;&gt;Node4 -->
<g id="edge3" class="edge"><title>Node1&#45;&gt;Node4</title>
<path fill="none" stroke="midnightblue" d="M225.227,-97.033C232.649,-87.1635 240.047,-77.3262 246.68,-68.5058"/>
<polygon fill="none" stroke="midnightblue" points="222.216,-95.2134 219.003,-105.309 227.811,-99.4206 222.216,-95.2134"/>
</g>
<!-- Node2 -->
<g id="node2" class="node"><title>Node2</title>
<g id="a_node2"><a xlink:href="class_u_m_l___diagram___generator_1_1_program_1_1_u_m_l_entity.html" target="_top" xlink:title="Represents a UML entity that can be represented.">
<polygon fill="white" stroke="black" points="139,-254.5 139,-322.5 216,-322.5 216,-254.5 139,-254.5"/>
<text text-anchor="middle" x="177.5" y="-310.5" font-family="Helvetica,sans-Serif" font-size="10.00">UMLEntity</text>
<polyline fill="none" stroke="black" points="139,-303.5 216,-303.5 "/>
<text text-anchor="start" x="147" y="-291.5" font-family="Helvetica,sans-Serif" font-size="10.00">+ Name</text>
<polyline fill="none" stroke="black" points="139,-284.5 216,-284.5 "/>
<text text-anchor="start" x="147" y="-272.5" font-family="Helvetica,sans-Serif" font-size="10.00">+ ToString()</text>
<text text-anchor="start" x="147" y="-261.5" font-family="Helvetica,sans-Serif" font-size="10.00">+ OutputSelf()</text>
</a>
</g>
</g>
<!-- Node2&#45;&gt;Node1 -->
<g id="edge1" class="edge"><title>Node2&#45;&gt;Node1</title>
<path fill="none" stroke="midnightblue" d="M177.5,-244.182C177.5,-235.604 177.5,-226.493 177.5,-217.585"/>
<polygon fill="none" stroke="midnightblue" points="174,-244.33 177.5,-254.33 181,-244.331 174,-244.33"/>
</g>
</g>
</svg>
