<?xml version="1.0" encoding="UTF-8" standalone="no"?>
<!DOCTYPE svg PUBLIC "-//W3C//DTD SVG 1.1//EN"
 "http://www.w3.org/Graphics/SVG/1.1/DTD/svg11.dtd">
<!-- Generated by graphviz version 2.38.0 (20140413.2041)
 -->
<!-- Title: UML_Diagram_Generator.Program.Usage&lt; T &gt; Pages: 1 -->
<svg width="364pt" height="453pt"
 viewBox="0.00 0.00 364.00 453.00" xmlns="http://www.w3.org/2000/svg" xmlns:xlink="http://www.w3.org/1999/xlink">
<g id="graph0" class="graph" transform="scale(1 1) rotate(0) translate(4 449)">
<title>UML_Diagram_Generator.Program.Usage&lt; T &gt;</title>
<polygon fill="white" stroke="none" points="-4,4 -4,-449 360,-449 360,4 -4,4"/>
<!-- Node1 -->
<g id="node1" class="node"><title>Node1</title>
<g id="a_node1"><a xlink:title=" ">
<polygon fill="#bfbfbf" stroke="black" points="105,-299.5 105,-444.5 274,-444.5 274,-299.5 105,-299.5"/>
<text text-anchor="start" x="113" y="-432.5" font-family="Helvetica,sans-Serif" font-size="10.00">UML_Diagram_Generator.Program.</text>
<text text-anchor="middle" x="189.5" y="-421.5" font-family="Helvetica,sans-Serif" font-size="10.00">Usage&lt; T &gt;</text>
<polyline fill="none" stroke="black" points="105,-414.5 274,-414.5 "/>
<text text-anchor="start" x="113" y="-402.5" font-family="Helvetica,sans-Serif" font-size="10.00">+ Resolved</text>
<text text-anchor="start" x="113" y="-391.5" font-family="Helvetica,sans-Serif" font-size="10.00">+ Compound</text>
<text text-anchor="start" x="113" y="-380.5" font-family="Helvetica,sans-Serif" font-size="10.00">+ node</text>
<text text-anchor="start" x="113" y="-369.5" font-family="Helvetica,sans-Serif" font-size="10.00">+ Relevant</text>
<text text-anchor="start" x="113" y="-358.5" font-family="Helvetica,sans-Serif" font-size="10.00">+ Public</text>
<text text-anchor="start" x="113" y="-347.5" font-family="Helvetica,sans-Serif" font-size="10.00">+ DeclaredName</text>
<text text-anchor="start" x="113" y="-336.5" font-family="Helvetica,sans-Serif" font-size="10.00">+ TypeName</text>
<text text-anchor="start" x="113" y="-325.5" font-family="Helvetica,sans-Serif" font-size="10.00">&#45; _typeName</text>
<polyline fill="none" stroke="black" points="105,-318.5 274,-318.5 "/>
<text text-anchor="middle" x="189.5" y="-306.5" font-family="Helvetica,sans-Serif" font-size="10.00"> </text>
</a>
</g>
</g>
<!-- Node2 -->
<g id="node2" class="node"><title>Node2</title>
<g id="a_node2"><a xlink:href="class_u_m_l___diagram___generator_1_1_program_1_1_usage.html" target="_top" xlink:title=" ">
<polygon fill="white" stroke="black" points="0,-106.5 0,-251.5 169,-251.5 169,-106.5 0,-106.5"/>
<text text-anchor="start" x="8" y="-239.5" font-family="Helvetica,sans-Serif" font-size="10.00">UML_Diagram_Generator.Program.</text>
<text text-anchor="middle" x="84.5" y="-228.5" font-family="Helvetica,sans-Serif" font-size="10.00">Usage&lt; ClassNode &gt;</text>
<polyline fill="none" stroke="black" points="0,-221.5 169,-221.5 "/>
<text text-anchor="start" x="8" y="-209.5" font-family="Helvetica,sans-Serif" font-size="10.00">+ Resolved</text>
<text text-anchor="start" x="8" y="-198.5" font-family="Helvetica,sans-Serif" font-size="10.00">+ Compound</text>
<text text-anchor="start" x="8" y="-187.5" font-family="Helvetica,sans-Serif" font-size="10.00">+ node</text>
<text text-anchor="start" x="8" y="-176.5" font-family="Helvetica,sans-Serif" font-size="10.00">+ Relevant</text>
<text text-anchor="start" x="8" y="-165.5" font-family="Helvetica,sans-Serif" font-size="10.00">+ Public</text>
<text text-anchor="start" x="8" y="-154.5" font-family="Helvetica,sans-Serif" font-size="10.00">+ DeclaredName</text>
<text text-anchor="start" x="8" y="-143.5" font-family="Helvetica,sans-Serif" font-size="10.00">+ TypeName</text>
<text text-anchor="start" x="8" y="-132.5" font-family="Helvetica,sans-Serif" font-size="10.00">&#45; _typeName</text>
<polyline fill="none" stroke="black" points="0,-125.5 169,-125.5 "/>
<text text-anchor="middle" x="84.5" y="-113.5" font-family="Helvetica,sans-Serif" font-size="10.00"> </text>
</a>
</g>
</g>
<!-- Node1&#45;&gt;Node2 -->
<g id="edge1" class="edge"><title>Node1&#45;&gt;Node2</title>
<path fill="none" stroke="orange" d="M145.246,-290.499C138.173,-277.633 130.895,-264.394 123.943,-251.749"/>
<polygon fill="orange" stroke="orange" points="142.219,-292.258 150.103,-299.335 148.353,-288.886 142.219,-292.258"/>
<text text-anchor="middle" x="172" y="-273" font-family="Helvetica,sans-Serif" font-size="10.00"> &lt; ClassNode &gt;</text>
</g>
<!-- Node4 -->
<g id="node4" class="node"><title>Node4</title>
<g id="a_node4"><a xlink:href="class_u_m_l___diagram___generator_1_1_program_1_1_usage.html" target="_top" xlink:title=" ">
<polygon fill="white" stroke="black" points="187,-106.5 187,-251.5 356,-251.5 356,-106.5 187,-106.5"/>
<text text-anchor="start" x="195" y="-239.5" font-family="Helvetica,sans-Serif" font-size="10.00">UML_Diagram_Generator.Program.</text>
<text text-anchor="middle" x="271.5" y="-228.5" font-family="Helvetica,sans-Serif" font-size="10.00">Usage&lt; InterfaceNode &gt;</text>
<polyline fill="none" stroke="black" points="187,-221.5 356,-221.5 "/>
<text text-anchor="start" x="195" y="-209.5" font-family="Helvetica,sans-Serif" font-size="10.00">+ Resolved</text>
<text text-anchor="start" x="195" y="-198.5" font-family="Helvetica,sans-Serif" font-size="10.00">+ Compound</text>
<text text-anchor="start" x="195" y="-187.5" font-family="Helvetica,sans-Serif" font-size="10.00">+ node</text>
<text text-anchor="start" x="195" y="-176.5" font-family="Helvetica,sans-Serif" font-size="10.00">+ Relevant</text>
<text text-anchor="start" x="195" y="-165.5" font-family="Helvetica,sans-Serif" font-size="10.00">+ Public</text>
<text text-anchor="start" x="195" y="-154.5" font-family="Helvetica,sans-Serif" font-size="10.00">+ DeclaredName</text>
<text text-anchor="start" x="195" y="-143.5" font-family="Helvetica,sans-Serif" font-size="10.00">+ TypeName</text>
<text text-anchor="start" x="195" y="-132.5" font-family="Helvetica,sans-Serif" font-size="10.00">&#45; _typeName</text>
<polyline fill="none" stroke="black" points="187,-125.5 356,-125.5 "/>
<text text-anchor="middle" x="271.5" y="-113.5" font-family="Helvetica,sans-Serif" font-size="10.00"> </text>
</a>
</g>
</g>
<!-- Node1&#45;&gt;Node4 -->
<g id="edge3" class="edge"><title>Node1&#45;&gt;Node4</title>
<path fill="none" stroke="orange" d="M224.22,-290.128C229.694,-277.378 235.32,-264.273 240.697,-251.749"/>
<polygon fill="orange" stroke="orange" points="220.996,-288.765 220.267,-299.335 227.428,-291.527 220.996,-288.765"/>
<text text-anchor="middle" x="271" y="-273" font-family="Helvetica,sans-Serif" font-size="10.00"> &lt; InterfaceNode &gt;</text>
</g>
<!-- Node3 -->
<g id="node3" class="node"><title>Node3</title>
<g id="a_node3"><a xlink:href="class_u_m_l___diagram___generator_1_1_program_1_1_class_usage.html" target="_top" xlink:title=" ">
<polygon fill="white" stroke="black" points="0,-0.5 0,-68.5 169,-68.5 169,-0.5 0,-0.5"/>
<text text-anchor="start" x="8" y="-56.5" font-family="Helvetica,sans-Serif" font-size="10.00">UML_Diagram_Generator.Program.</text>
<text text-anchor="middle" x="84.5" y="-45.5" font-family="Helvetica,sans-Serif" font-size="10.00">ClassUsage</text>
<polyline fill="none" stroke="black" points="0,-38.5 169,-38.5 "/>
<text text-anchor="middle" x="84.5" y="-26.5" font-family="Helvetica,sans-Serif" font-size="10.00"> </text>
<polyline fill="none" stroke="black" points="0,-19.5 169,-19.5 "/>
<text text-anchor="middle" x="84.5" y="-7.5" font-family="Helvetica,sans-Serif" font-size="10.00"> </text>
</a>
</g>
</g>
<!-- Node2&#45;&gt;Node3 -->
<g id="edge2" class="edge"><title>Node2&#45;&gt;Node3</title>
<path fill="none" stroke="midnightblue" d="M84.5,-96.1822C84.5,-86.5049 84.5,-77.0935 84.5,-68.6838"/>
<polygon fill="none" stroke="midnightblue" points="81.0001,-96.3325 84.5,-106.333 88.0001,-96.3326 81.0001,-96.3325"/>
</g>
<!-- Node5 -->
<g id="node5" class="node"><title>Node5</title>
<g id="a_node5"><a xlink:href="class_u_m_l___diagram___generator_1_1_program_1_1_interface_usage.html" target="_top" xlink:title=" ">
<polygon fill="white" stroke="black" points="187,-0.5 187,-68.5 356,-68.5 356,-0.5 187,-0.5"/>
<text text-anchor="start" x="195" y="-56.5" font-family="Helvetica,sans-Serif" font-size="10.00">UML_Diagram_Generator.Program.</text>
<text text-anchor="middle" x="271.5" y="-45.5" font-family="Helvetica,sans-Serif" font-size="10.00">InterfaceUsage</text>
<polyline fill="none" stroke="black" points="187,-38.5 356,-38.5 "/>
<text text-anchor="middle" x="271.5" y="-26.5" font-family="Helvetica,sans-Serif" font-size="10.00"> </text>
<polyline fill="none" stroke="black" points="187,-19.5 356,-19.5 "/>
<text text-anchor="middle" x="271.5" y="-7.5" font-family="Helvetica,sans-Serif" font-size="10.00"> </text>
</a>
</g>
</g>
<!-- Node4&#45;&gt;Node5 -->
<g id="edge4" class="edge"><title>Node4&#45;&gt;Node5</title>
<path fill="none" stroke="midnightblue" d="M271.5,-96.1822C271.5,-86.5049 271.5,-77.0935 271.5,-68.6838"/>
<polygon fill="none" stroke="midnightblue" points="268,-96.3325 271.5,-106.333 275,-96.3326 268,-96.3325"/>
</g>
</g>
</svg>
