<?xml version="1.0" encoding="UTF-8" standalone="no"?>
<!DOCTYPE svg PUBLIC "-//W3C//DTD SVG 1.1//EN"
 "http://www.w3.org/Graphics/SVG/1.1/DTD/svg11.dtd">
<!-- Generated by graphviz version 2.38.0 (20140413.2041)
 -->
<!-- Title: UML_Diagram_Generator.Program.Node Pages: 1 -->
<svg width="199pt" height="226pt"
 viewBox="0.00 0.00 199.00 226.00" xmlns="http://www.w3.org/2000/svg" xmlns:xlink="http://www.w3.org/1999/xlink">
<g id="graph0" class="graph" transform="scale(1 1) rotate(0) translate(4 222)">
<title>UML_Diagram_Generator.Program.Node</title>
<polygon fill="white" stroke="none" points="-4,4 -4,-222 195,-222 195,4 -4,4"/>
<!-- Node1 -->
<g id="node1" class="node"><title>Node1</title>
<g id="a_node1"><a xlink:title=" ">
<polygon fill="#bfbfbf" stroke="black" points="0,-0.5 0,-112.5 191,-112.5 191,-0.5 0,-0.5"/>
<text text-anchor="middle" x="95.5" y="-100.5" font-family="Helvetica,sans-Serif" font-size="10.00">UML_Diagram_Generator.Program.Node</text>
<polyline fill="none" stroke="black" points="0,-93.5 191,-93.5 "/>
<text text-anchor="start" x="8" y="-81.5" font-family="Helvetica,sans-Serif" font-size="10.00">+ Package</text>
<text text-anchor="start" x="8" y="-70.5" font-family="Helvetica,sans-Serif" font-size="10.00">+ Inherits</text>
<text text-anchor="start" x="8" y="-59.5" font-family="Helvetica,sans-Serif" font-size="10.00">+ Uses</text>
<text text-anchor="start" x="8" y="-48.5" font-family="Helvetica,sans-Serif" font-size="10.00">+ Attributes</text>
<text text-anchor="start" x="8" y="-37.5" font-family="Helvetica,sans-Serif" font-size="10.00">+ Methods</text>
<text text-anchor="start" x="8" y="-26.5" font-family="Helvetica,sans-Serif" font-size="10.00">+ IsInterface</text>
<polyline fill="none" stroke="black" points="0,-19.5 191,-19.5 "/>
<text text-anchor="start" x="8" y="-7.5" font-family="Helvetica,sans-Serif" font-size="10.00">+ OutputRelations()</text>
</a>
</g>
</g>
<!-- Node2 -->
<g id="node2" class="node"><title>Node2</title>
<g id="a_node2"><a xlink:href="class_u_m_l___diagram___generator_1_1_program_1_1_u_m_l_entity.html" target="_top" xlink:title="Represents a UML entity that can be represented.">
<polygon fill="white" stroke="black" points="57,-149.5 57,-217.5 134,-217.5 134,-149.5 57,-149.5"/>
<text text-anchor="middle" x="95.5" y="-205.5" font-family="Helvetica,sans-Serif" font-size="10.00">UMLEntity</text>
<polyline fill="none" stroke="black" points="57,-198.5 134,-198.5 "/>
<text text-anchor="start" x="65" y="-186.5" font-family="Helvetica,sans-Serif" font-size="10.00">+ Name</text>
<polyline fill="none" stroke="black" points="57,-179.5 134,-179.5 "/>
<text text-anchor="start" x="65" y="-167.5" font-family="Helvetica,sans-Serif" font-size="10.00">+ ToString()</text>
<text text-anchor="start" x="65" y="-156.5" font-family="Helvetica,sans-Serif" font-size="10.00">+ OutputSelf()</text>
</a>
</g>
</g>
<!-- Node2&#45;&gt;Node1 -->
<g id="edge1" class="edge"><title>Node2&#45;&gt;Node1</title>
<path fill="none" stroke="midnightblue" d="M95.5,-139.182C95.5,-130.604 95.5,-121.493 95.5,-112.585"/>
<polygon fill="none" stroke="midnightblue" points="92.0001,-139.33 95.5,-149.33 99.0001,-139.331 92.0001,-139.33"/>
</g>
</g>
</svg>
