<?xml version="1.0" encoding="UTF-8" standalone="no"?>
<!DOCTYPE svg PUBLIC "-//W3C//DTD SVG 1.1//EN"
 "http://www.w3.org/Graphics/SVG/1.1/DTD/svg11.dtd">
<!-- Generated by graphviz version 2.38.0 (20140413.2041)
 -->
<!-- Title: UML_Diagram_Generator.Program.ClassUsage Pages: 1 -->
<svg width="177pt" height="442pt"
 viewBox="0.00 0.00 177.00 442.00" xmlns="http://www.w3.org/2000/svg" xmlns:xlink="http://www.w3.org/1999/xlink">
<g id="graph0" class="graph" transform="scale(1 1) rotate(0) translate(4 438)">
<title>UML_Diagram_Generator.Program.ClassUsage</title>
<polygon fill="white" stroke="none" points="-4,4 -4,-438 173,-438 173,4 -4,4"/>
<!-- Node1 -->
<g id="node1" class="node"><title>Node1</title>
<g id="a_node1"><a xlink:title=" ">
<polygon fill="#bfbfbf" stroke="black" points="0,-0.5 0,-68.5 169,-68.5 169,-0.5 0,-0.5"/>
<text text-anchor="start" x="8" y="-56.5" font-family="Helvetica,sans-Serif" font-size="10.00">UML_Diagram_Generator.Program.</text>
<text text-anchor="middle" x="84.5" y="-45.5" font-family="Helvetica,sans-Serif" font-size="10.00">ClassUsage</text>
<polyline fill="none" stroke="black" points="0,-38.5 169,-38.5 "/>
<text text-anchor="middle" x="84.5" y="-26.5" font-family="Helvetica,sans-Serif" font-size="10.00"> </text>
<polyline fill="none" stroke="black" points="0,-19.5 169,-19.5 "/>
<text text-anchor="middle" x="84.5" y="-7.5" font-family="Helvetica,sans-Serif" font-size="10.00"> </text>
</a>
</g>
</g>
<!-- Node2 -->
<g id="node2" class="node"><title>Node2</title>
<g id="a_node2"><a xlink:href="class_u_m_l___diagram___generator_1_1_program_1_1_usage.html" target="_top" xlink:title=" ">
<polygon fill="white" stroke="black" points="29.5,-106.5 29.5,-240.5 139.5,-240.5 139.5,-106.5 29.5,-106.5"/>
<text text-anchor="middle" x="84.5" y="-228.5" font-family="Helvetica,sans-Serif" font-size="10.00">Usage&lt; ClassNode &gt;</text>
<polyline fill="none" stroke="black" points="29.5,-221.5 139.5,-221.5 "/>
<text text-anchor="start" x="37.5" y="-209.5" font-family="Helvetica,sans-Serif" font-size="10.00">+ Resolved</text>
<text text-anchor="start" x="37.5" y="-198.5" font-family="Helvetica,sans-Serif" font-size="10.00">+ Compound</text>
<text text-anchor="start" x="37.5" y="-187.5" font-family="Helvetica,sans-Serif" font-size="10.00">+ node</text>
<text text-anchor="start" x="37.5" y="-176.5" font-family="Helvetica,sans-Serif" font-size="10.00">+ Relevant</text>
<text text-anchor="start" x="37.5" y="-165.5" font-family="Helvetica,sans-Serif" font-size="10.00">+ Public</text>
<text text-anchor="start" x="37.5" y="-154.5" font-family="Helvetica,sans-Serif" font-size="10.00">+ DeclaredName</text>
<text text-anchor="start" x="37.5" y="-143.5" font-family="Helvetica,sans-Serif" font-size="10.00">+ TypeName</text>
<text text-anchor="start" x="37.5" y="-132.5" font-family="Helvetica,sans-Serif" font-size="10.00">&#45; _typeName</text>
<polyline fill="none" stroke="black" points="29.5,-125.5 139.5,-125.5 "/>
<text text-anchor="middle" x="84.5" y="-113.5" font-family="Helvetica,sans-Serif" font-size="10.00"> </text>
</a>
</g>
</g>
<!-- Node2&#45;&gt;Node1 -->
<g id="edge1" class="edge"><title>Node2&#45;&gt;Node1</title>
<path fill="none" stroke="midnightblue" d="M84.5,-96.2563C84.5,-86.556 84.5,-77.0656 84.5,-68.5765"/>
<polygon fill="none" stroke="midnightblue" points="81.0001,-96.4077 84.5,-106.408 88.0001,-96.4078 81.0001,-96.4077"/>
</g>
<!-- Node3 -->
<g id="node3" class="node"><title>Node3</title>
<g id="a_node3"><a xlink:href="class_u_m_l___diagram___generator_1_1_program_1_1_usage.html" target="_top" xlink:title=" ">
<polygon fill="white" stroke="black" points="0,-288.5 0,-433.5 169,-433.5 169,-288.5 0,-288.5"/>
<text text-anchor="start" x="8" y="-421.5" font-family="Helvetica,sans-Serif" font-size="10.00">UML_Diagram_Generator.Program.</text>
<text text-anchor="middle" x="84.5" y="-410.5" font-family="Helvetica,sans-Serif" font-size="10.00">Usage&lt; T &gt;</text>
<polyline fill="none" stroke="black" points="0,-403.5 169,-403.5 "/>
<text text-anchor="start" x="8" y="-391.5" font-family="Helvetica,sans-Serif" font-size="10.00">+ Resolved</text>
<text text-anchor="start" x="8" y="-380.5" font-family="Helvetica,sans-Serif" font-size="10.00">+ Compound</text>
<text text-anchor="start" x="8" y="-369.5" font-family="Helvetica,sans-Serif" font-size="10.00">+ node</text>
<text text-anchor="start" x="8" y="-358.5" font-family="Helvetica,sans-Serif" font-size="10.00">+ Relevant</text>
<text text-anchor="start" x="8" y="-347.5" font-family="Helvetica,sans-Serif" font-size="10.00">+ Public</text>
<text text-anchor="start" x="8" y="-336.5" font-family="Helvetica,sans-Serif" font-size="10.00">+ DeclaredName</text>
<text text-anchor="start" x="8" y="-325.5" font-family="Helvetica,sans-Serif" font-size="10.00">+ TypeName</text>
<text text-anchor="start" x="8" y="-314.5" font-family="Helvetica,sans-Serif" font-size="10.00">&#45; _typeName</text>
<polyline fill="none" stroke="black" points="0,-307.5 169,-307.5 "/>
<text text-anchor="middle" x="84.5" y="-295.5" font-family="Helvetica,sans-Serif" font-size="10.00"> </text>
</a>
</g>
</g>
<!-- Node3&#45;&gt;Node2 -->
<g id="edge2" class="edge"><title>Node3&#45;&gt;Node2</title>
<path fill="none" stroke="orange" d="M84.5,-278.25C84.5,-265.647 84.5,-252.768 84.5,-240.564"/>
<polygon fill="orange" stroke="orange" points="81.0001,-278.281 84.5,-288.281 88.0001,-278.281 81.0001,-278.281"/>
<text text-anchor="middle" x="119" y="-262" font-family="Helvetica,sans-Serif" font-size="10.00"> &lt; ClassNode &gt;</text>
</g>
</g>
</svg>
