<?xml version="1.0" encoding="UTF-8" standalone="no"?>
<!DOCTYPE svg PUBLIC "-//W3C//DTD SVG 1.1//EN"
 "http://www.w3.org/Graphics/SVG/1.1/DTD/svg11.dtd">
<!-- Generated by graphviz version 2.38.0 (20140413.2041)
 -->
<!-- Title: UML_Diagram_Generator.Program.Main Pages: 1 -->
<svg width="608pt" height="186pt"
 viewBox="0.00 0.00 608.00 186.00" xmlns="http://www.w3.org/2000/svg" xmlns:xlink="http://www.w3.org/1999/xlink">
<g id="graph0" class="graph" transform="scale(1 1) rotate(0) translate(4 182)">
<title>UML_Diagram_Generator.Program.Main</title>
<polygon fill="white" stroke="none" points="-4,4 -4,-182 604,-182 604,4 -4,4"/>
<!-- Node1 -->
<g id="node1" class="node"><title>Node1</title>
<g id="a_node1"><a xlink:title="Call the program either with or without arguments specifying in which folder it should run.">
<polygon fill="#bfbfbf" stroke="black" points="0,-79 0,-98 190,-98 190,-79 0,-79"/>
<text text-anchor="middle" x="95" y="-86" font-family="Helvetica,sans-Serif" font-size="10.00">UML_Diagram_Generator.Program.Main</text>
</a>
</g>
</g>
<!-- Node2 -->
<g id="node2" class="node"><title>Node2</title>
<g id="a_node2"><a xlink:href="class_u_m_l___diagram___generator_1_1_program_1_1_package.html#a2046684a5b0c09a58e88d4322df815b1" target="_top" xlink:title="Output all that is required to render this UML element within some diagram.">
<polygon fill="white" stroke="black" points="226,-147.5 226,-177.5 395,-177.5 395,-147.5 226,-147.5"/>
<text text-anchor="start" x="234" y="-165.5" font-family="Helvetica,sans-Serif" font-size="10.00">UML_Diagram_Generator.Program.</text>
<text text-anchor="middle" x="310.5" y="-154.5" font-family="Helvetica,sans-Serif" font-size="10.00">Package.OutputSelf</text>
</a>
</g>
</g>
<!-- Node1&#45;&gt;Node2 -->
<g id="edge1" class="edge"><title>Node1&#45;&gt;Node2</title>
<path fill="none" stroke="midnightblue" d="M119.261,-98.1537C145.101,-108.711 188.171,-125.816 226,-138.5 232.006,-140.514 238.289,-142.513 244.597,-144.448"/>
<polygon fill="midnightblue" stroke="midnightblue" points="243.907,-147.896 254.492,-147.429 245.926,-141.193 243.907,-147.896"/>
</g>
<!-- Node3 -->
<g id="node3" class="node"><title>Node3</title>
<g id="a_node3"><a xlink:href="class_u_m_l___diagram___generator_1_1_program.html#a0fa6d432a7ad24491e78fcf92cbc2617" target="_top" xlink:title=" ">
<polygon fill="white" stroke="black" points="226,-98.5 226,-128.5 395,-128.5 395,-98.5 226,-98.5"/>
<text text-anchor="start" x="234" y="-116.5" font-family="Helvetica,sans-Serif" font-size="10.00">UML_Diagram_Generator.Program.</text>
<text text-anchor="middle" x="310.5" y="-105.5" font-family="Helvetica,sans-Serif" font-size="10.00">ParseDoxygenStructure</text>
</a>
</g>
</g>
<!-- Node1&#45;&gt;Node3 -->
<g id="edge2" class="edge"><title>Node1&#45;&gt;Node3</title>
<path fill="none" stroke="midnightblue" d="M177.324,-98.0227C189.877,-99.4926 202.928,-101.021 215.727,-102.519"/>
<polygon fill="midnightblue" stroke="midnightblue" points="215.583,-106.027 225.922,-103.713 216.397,-99.074 215.583,-106.027"/>
</g>
<!-- Node5 -->
<g id="node5" class="node"><title>Node5</title>
<g id="a_node5"><a xlink:href="class_u_m_l___diagram___generator_1_1_program_1_1_file_dot_engine.html#a1e902957cfab73bb1a89f6c5262d7e3f" target="_top" xlink:title=" ">
<polygon fill="white" stroke="black" points="226,-49.5 226,-79.5 395,-79.5 395,-49.5 226,-49.5"/>
<text text-anchor="start" x="234" y="-67.5" font-family="Helvetica,sans-Serif" font-size="10.00">UML_Diagram_Generator.Program.</text>
<text text-anchor="middle" x="310.5" y="-56.5" font-family="Helvetica,sans-Serif" font-size="10.00">FileDotEngine.Run</text>
</a>
</g>
</g>
<!-- Node1&#45;&gt;Node5 -->
<g id="edge4" class="edge"><title>Node1&#45;&gt;Node5</title>
<path fill="none" stroke="midnightblue" d="M180.687,-78.9801C192.213,-77.6845 204.098,-76.3485 215.771,-75.0362"/>
<polygon fill="midnightblue" stroke="midnightblue" points="216.415,-78.486 225.962,-73.8907 215.633,-71.5298 216.415,-78.486"/>
</g>
<!-- Node6 -->
<g id="node6" class="node"><title>Node6</title>
<g id="a_node6"><a xlink:href="class_u_m_l___diagram___generator_1_1_program_1_1_doxygen_runner.html#ab25111d71a8ee8c800ca245a35484c2f" target="_top" xlink:title="Runs doxygen on the specified path, thereby updating &#45; among others&#45; the XML of the data inside.">
<polygon fill="white" stroke="black" points="226,-0.5 226,-30.5 395,-30.5 395,-0.5 226,-0.5"/>
<text text-anchor="start" x="234" y="-18.5" font-family="Helvetica,sans-Serif" font-size="10.00">UML_Diagram_Generator.Program.</text>
<text text-anchor="middle" x="310.5" y="-7.5" font-family="Helvetica,sans-Serif" font-size="10.00">DoxygenRunner.Run</text>
</a>
</g>
</g>
<!-- Node1&#45;&gt;Node6 -->
<g id="edge5" class="edge"><title>Node1&#45;&gt;Node6</title>
<path fill="none" stroke="midnightblue" d="M120.758,-78.8311C146.793,-68.7879 189.032,-52.8455 226,-40.5 232.907,-38.1933 240.169,-35.8703 247.407,-33.6188"/>
<polygon fill="midnightblue" stroke="midnightblue" points="248.696,-36.8841 257.227,-30.601 246.64,-30.193 248.696,-36.8841"/>
</g>
<!-- Node4 -->
<g id="node4" class="node"><title>Node4</title>
<g id="a_node4"><a xlink:href="class_u_m_l___diagram___generator_1_1_program_1_1_package.html#ae189a345ec6929c90cb3431b25c880f5" target="_top" xlink:title=" ">
<polygon fill="white" stroke="black" points="431,-98.5 431,-128.5 600,-128.5 600,-98.5 431,-98.5"/>
<text text-anchor="start" x="439" y="-116.5" font-family="Helvetica,sans-Serif" font-size="10.00">UML_Diagram_Generator.Program.</text>
<text text-anchor="middle" x="515.5" y="-105.5" font-family="Helvetica,sans-Serif" font-size="10.00">Package.Get</text>
</a>
</g>
</g>
<!-- Node3&#45;&gt;Node4 -->
<g id="edge3" class="edge"><title>Node3&#45;&gt;Node4</title>
<path fill="none" stroke="midnightblue" d="M395.24,-113.5C403.718,-113.5 412.366,-113.5 420.939,-113.5"/>
<polygon fill="midnightblue" stroke="midnightblue" points="420.953,-117 430.953,-113.5 420.953,-110 420.953,-117"/>
</g>
</g>
</svg>
