<?xml version="1.0" encoding="UTF-8" standalone="no"?>
<!DOCTYPE svg PUBLIC "-//W3C//DTD SVG 1.1//EN"
 "http://www.w3.org/Graphics/SVG/1.1/DTD/svg11.dtd">
<!-- Generated by graphviz version 2.38.0 (20140413.2041)
 -->
<!-- Title: Graphical Class Hierarchy Pages: 1 -->
<svg width="609pt" height="176pt"
 viewBox="0.00 0.00 609.00 176.00" xmlns="http://www.w3.org/2000/svg" xmlns:xlink="http://www.w3.org/1999/xlink">
<g id="graph0" class="graph" transform="scale(1 1) rotate(0) translate(4 172)">
<title>Graphical Class Hierarchy</title>
<polygon fill="white" stroke="none" points="-4,4 -4,-172 605,-172 605,4 -4,4"/>
<!-- Node0 -->
<g id="node1" class="node"><title>Node0</title>
<g id="a_node1"><a xlink:href="class_u_m_l___diagram___generator_1_1_program_1_1_u_m_l_entity.html" target="_top" xlink:title="Represents a UML entity that can be represented.">
<polygon fill="white" stroke="black" points="0,-66.5 0,-96.5 169,-96.5 169,-66.5 0,-66.5"/>
<text text-anchor="start" x="8" y="-84.5" font-family="Helvetica,sans-Serif" font-size="10.00">UML_Diagram_Generator.Program.</text>
<text text-anchor="middle" x="84.5" y="-73.5" font-family="Helvetica,sans-Serif" font-size="10.00">UMLEntity</text>
</a>
</g>
</g>
<!-- Node1 -->
<g id="node2" class="node"><title>Node1</title>
<g id="a_node2"><a xlink:href="class_u_m_l___diagram___generator_1_1_program_1_1_attribute.html" target="_top" xlink:title=" ">
<polygon fill="white" stroke="black" points="216,-137.5 216,-167.5 385,-167.5 385,-137.5 216,-137.5"/>
<text text-anchor="start" x="224" y="-155.5" font-family="Helvetica,sans-Serif" font-size="10.00">UML_Diagram_Generator.Program.</text>
<text text-anchor="middle" x="300.5" y="-144.5" font-family="Helvetica,sans-Serif" font-size="10.00">Attribute</text>
</a>
</g>
</g>
<!-- Node0&#45;&gt;Node1 -->
<g id="edge1" class="edge"><title>Node0&#45;&gt;Node1</title>
<path fill="none" stroke="midnightblue" d="M129.9,-100.506C152.197,-109.653 179.77,-120.37 205,-128.5 214.828,-131.667 225.338,-134.687 235.646,-137.451"/>
<polygon fill="midnightblue" stroke="midnightblue" points="130.952,-97.1532 120.373,-96.5618 128.274,-103.621 130.952,-97.1532"/>
</g>
<!-- Node2 -->
<g id="node3" class="node"><title>Node2</title>
<g id="a_node3"><a xlink:href="class_u_m_l___diagram___generator_1_1_program_1_1_method.html" target="_top" xlink:title=" ">
<polygon fill="white" stroke="black" points="216,-88.5 216,-118.5 385,-118.5 385,-88.5 216,-88.5"/>
<text text-anchor="start" x="224" y="-106.5" font-family="Helvetica,sans-Serif" font-size="10.00">UML_Diagram_Generator.Program.</text>
<text text-anchor="middle" x="300.5" y="-95.5" font-family="Helvetica,sans-Serif" font-size="10.00">Method</text>
</a>
</g>
</g>
<!-- Node0&#45;&gt;Node2 -->
<g id="edge2" class="edge"><title>Node0&#45;&gt;Node2</title>
<path fill="none" stroke="midnightblue" d="M179.318,-91.1448C191.496,-92.3967 203.904,-93.6724 215.901,-94.9057"/>
<polygon fill="midnightblue" stroke="midnightblue" points="179.463,-87.6414 169.157,-90.1003 178.747,-94.6047 179.463,-87.6414"/>
</g>
<!-- Node3 -->
<g id="node4" class="node"><title>Node3</title>
<g id="a_node4"><a xlink:href="class_u_m_l___diagram___generator_1_1_program_1_1_node.html" target="_top" xlink:title=" ">
<polygon fill="white" stroke="black" points="205,-50 205,-69 396,-69 396,-50 205,-50"/>
<text text-anchor="middle" x="300.5" y="-57" font-family="Helvetica,sans-Serif" font-size="10.00">UML_Diagram_Generator.Program.Node</text>
</a>
</g>
</g>
<!-- Node0&#45;&gt;Node3 -->
<g id="edge3" class="edge"><title>Node0&#45;&gt;Node3</title>
<path fill="none" stroke="midnightblue" d="M179.14,-71.8735C188.4,-70.9215 197.797,-69.9555 207.045,-69.0047"/>
<polygon fill="midnightblue" stroke="midnightblue" points="178.747,-68.3953 169.157,-72.8997 179.463,-75.3586 178.747,-68.3953"/>
</g>
<!-- Node6 -->
<g id="node7" class="node"><title>Node6</title>
<g id="a_node7"><a xlink:href="class_u_m_l___diagram___generator_1_1_program_1_1_package.html" target="_top" xlink:title=" ">
<polygon fill="white" stroke="black" points="216,-0.5 216,-30.5 385,-30.5 385,-0.5 216,-0.5"/>
<text text-anchor="start" x="224" y="-18.5" font-family="Helvetica,sans-Serif" font-size="10.00">UML_Diagram_Generator.Program.</text>
<text text-anchor="middle" x="300.5" y="-7.5" font-family="Helvetica,sans-Serif" font-size="10.00">Package</text>
</a>
</g>
</g>
<!-- Node0&#45;&gt;Node6 -->
<g id="edge6" class="edge"><title>Node0&#45;&gt;Node6</title>
<path fill="none" stroke="midnightblue" d="M136.717,-63.0233C157.761,-55.6683 182.441,-47.3442 205,-40.5 216.287,-37.0757 228.41,-33.6681 240.084,-30.5205"/>
<polygon fill="midnightblue" stroke="midnightblue" points="135.288,-59.8157 127.015,-66.4351 137.61,-66.4193 135.288,-59.8157"/>
</g>
<!-- Node4 -->
<g id="node5" class="node"><title>Node4</title>
<g id="a_node5"><a xlink:href="class_u_m_l___diagram___generator_1_1_program_1_1_class_node.html" target="_top" xlink:title=" ">
<polygon fill="white" stroke="black" points="432,-69.5 432,-99.5 601,-99.5 601,-69.5 432,-69.5"/>
<text text-anchor="start" x="440" y="-87.5" font-family="Helvetica,sans-Serif" font-size="10.00">UML_Diagram_Generator.Program.</text>
<text text-anchor="middle" x="516.5" y="-76.5" font-family="Helvetica,sans-Serif" font-size="10.00">ClassNode</text>
</a>
</g>
</g>
<!-- Node3&#45;&gt;Node4 -->
<g id="edge4" class="edge"><title>Node3&#45;&gt;Node4</title>
<path fill="none" stroke="midnightblue" d="M393.198,-70.2124C405.994,-71.7072 419.087,-73.2368 431.726,-74.7134"/>
<polygon fill="midnightblue" stroke="midnightblue" points="393.353,-66.7068 383.015,-69.0227 392.541,-73.6595 393.353,-66.7068"/>
</g>
<!-- Node5 -->
<g id="node6" class="node"><title>Node5</title>
<g id="a_node6"><a xlink:href="class_u_m_l___diagram___generator_1_1_program_1_1_interface_node.html" target="_top" xlink:title=" ">
<polygon fill="white" stroke="black" points="432,-20.5 432,-50.5 601,-50.5 601,-20.5 432,-20.5"/>
<text text-anchor="start" x="440" y="-38.5" font-family="Helvetica,sans-Serif" font-size="10.00">UML_Diagram_Generator.Program.</text>
<text text-anchor="middle" x="516.5" y="-27.5" font-family="Helvetica,sans-Serif" font-size="10.00">InterfaceNode</text>
</a>
</g>
</g>
<!-- Node3&#45;&gt;Node5 -->
<g id="edge5" class="edge"><title>Node3&#45;&gt;Node5</title>
<path fill="none" stroke="midnightblue" d="M396.616,-48.8327C408.331,-47.519 420.238,-46.1836 431.766,-44.8907"/>
<polygon fill="midnightblue" stroke="midnightblue" points="395.933,-45.3873 386.386,-49.9801 396.714,-52.3437 395.933,-45.3873"/>
</g>
</g>
</svg>
